<?xml version="1.0" encoding="utf-8"?>
<!-- Generator: Adobe Illustrator 23.1.0, SVG Export Plug-In . SVG Version: 6.00 Build 0)  -->
<svg version="1.1" xmlns="http://www.w3.org/2000/svg" xmlns:xlink="http://www.w3.org/1999/xlink" x="0px" y="0px"
	 viewBox="0 0 75 75" style="enable-background:new 0 0 75 75;" xml:space="preserve">
<style type="text/css">
	.st0{display:none;}
	.st1{display:inline;}
	.st2{fill:#3953A4;}
	.st3{fill:#A9D5F2;}
	.st4{fill:#0C8140;}
	.st5{display:inline;fill:none;stroke:#000000;stroke-width:2;stroke-miterlimit:10;}
	.st6{fill:#F7EC13;}
</style>
<g id="Layer_1" class="st0">
	<g class="st1">
		<path class="st2" d="M38.9,1.1c-0.3,3.6-3.8,6.6-7.1,9.1c-6.4,4.9-13.1,9.7-18.6,15.3S3.2,37.4,1.8,44.3S2.4,58.7,8.4,64
			c4.9,4.3,11.5,7.8,19.1,8.6c10,1,15.4,1.4,24,0.2c6.8-1,11.2-4,13.9-6.1c1.9-1.5,7.8-7.2,7.7-15.4c0-5.3-4.7-14.6-8.9-18.8
			c-3.6-3.6-4.3-4.2-7.9-7.9C50.1,18.1,41.2,9.1,38.9,1.1z"/>
		<g>
			<path d="M37.7,1.1c-0.4,3.8-4.5,6.5-7.2,8.6c-3.6,2.8-7.3,5.5-10.8,8.3C13.2,23.3,6.9,29.3,3.1,36.8c-3.3,6.6-4.1,14.2-1,21
				c3.1,6.8,10.1,11.4,16.9,14c3.9,1.5,8,2,12.2,2.3c3.8,0.4,7.6,0.6,11.3,0.6c7.3-0.1,14.6-1.2,20.9-5.2c4.4-2.8,7.9-6.7,9.8-11.7
				c1.2-3.1,1.5-6.5,0.8-9.7c-0.7-3.3-2.1-6.5-3.8-9.5c-1.7-3-3.7-5.7-6.1-8.1c-2.4-2.4-4.8-4.7-7.2-7.2c-5.4-5.5-11.1-11.2-14.9-18
				c-0.8-1.5-1.5-3-2-4.7c-0.5-1.5-2.9-0.9-2.4,0.7c2.1,6.9,7.1,12.7,11.9,17.8c2.5,2.7,5,5.3,7.6,7.9c2.2,2.2,4.6,4.4,6.7,6.7
				c2.2,2.4,3.9,5.3,5.3,8.2c1.3,2.7,2.5,5.7,2.7,8.6c0.3,5.6-2.8,11.2-7,14.7c-1.8,1.5-4.3,3-6.6,4c-3.5,1.5-7.2,2.1-11,2.4
				c-3.4,0.3-6.8,0.3-10.3,0.1c-4-0.2-8.1-0.4-12-1.2c-3.7-0.7-7.2-2.1-10.5-4c-3.1-1.8-6.2-4.1-8.3-7.1C2,54,1.7,46.5,4.4,39.9
				c3.1-7.5,9.1-13.4,15.2-18.6c3.3-2.8,6.8-5.4,10.2-8c3-2.3,6.4-4.5,8.6-7.7c1-1.4,1.6-2.9,1.7-4.6C40.3-0.5,37.8-0.5,37.7,1.1z"
				/>
		</g>
	</g>
	<g class="st1">
		<path class="st3" d="M32,12.8c-6.9,6.9-17.7,11.9-22.2,19.8C9,34.2,8.3,35.8,8,37.4c-0.3,1.4-0.4,2.9,0.6,4.1
			c1.5,1.9,5.1,2.4,7.9,1.5s4.7-2.7,6-4.6C27.3,31.4,28,20.1,32,12.8"/>
	</g>
</g>
<g id="Layer_2" class="st0">
	<g class="st1">
		<path class="st4" d="M26.5,14c-1.7-3.1-6.9-5.6-10.4-5.9c-3.5-0.3-7,0.9-10.1,2.6c-1.8,1-3.5,2.3-4.4,4.2S1.2,19.2,3,20.3
			c4.6-4,11.4-5.3,17.1-3.3c-3.7,2.3-8.4,2.5-12,4.9c-2.9,2-4.7,5.4-4.8,8.9c-0.1,3.5,1.7,7,4.5,9c0.9-4,2.1-8.2,4.8-11.3
			s7.2-5.1,11-3.7c0.5,0.2,1.1,0.5,1.4,1c0.5,0.8,0.1,2-0.6,2.6c-0.7,0.6-1.7,1-2.5,1.4c-2.9,1.5-4.9,4.4-6.5,7.3
			c-1.9,3.5-3.4,7.5-2.4,11.3c1.1,4.4,5.2,7.3,9.3,9.3c-2.2-8.3,2-17.2,7.9-23.5c1.8-1.9,4.2-3.8,6.7-3.2c-2,4.9-4.9,9.4-6.4,14.4
			c-1.5,5-1.5,10.5,0.3,15.4c1.8,4.9,5.4,9.2,10.1,11.5c0.4-1.2-0.2-2.5-0.7-3.7c-3.7-8.9-3.8-19.3-0.2-28.3
			c0.5-1.2,1.2-2.4,2.4-2.7c1,1.5,0.6,3.4,0.3,5.2c-1.5,7.6-1.7,15.4-0.7,23c0.2,1.2,0.4,2.5,0.9,3.7c1.5,3.4,5.8,5.3,9.3,4.1
			c-0.8-3.7-1.5-7.4-1.3-11.1c0.2-3.7,1.4-7.6,4.1-10.2c1.3,6-0.7,12.3-0.3,18.5c0,0.6,0.1,1.2,0.6,1.6c0.4,0.3,0.9,0.4,1.4,0.4
			c2.1,0.1,4.2,0.1,6.3,0.2c1,0,2,0,2.8-0.5c1-0.6,1.5-1.8,1.8-3c0.9-3.5,1.1-7.3,0-10.8s-3.7-6.6-7-7.9c-0.5-0.5,0-1.4,0.7-1.5
			c0.7-0.1,1.3,0.2,1.9,0.6c2.4,1.5,4.9,3.2,6.4,5.6c1.5,2.4,1.8,5.8,0,8c3.1-3.1,4.8-7.6,4.4-12s-2.7-8.6-6.2-11.2
			c-1.1-0.8-2.3-1.5-3.7-1.9C63,38.1,62,38,61,37.7c-2.4-0.6-4.7-1.8-6.9-2.9c-1-0.6-2.2-1.2-2.7-2.2c-0.6-1-0.3-2.6,0.9-3
			c4.4-0.4,9,0.2,12.9,2.4c3.8,2.2,6.8,6.3,7,10.7c1.2-3.8,1.5-8,0.4-11.9s-3.7-7.4-7.4-9.1c-2.1-1-4.4-1.3-6.7-1.4
			c-2.9-0.2-5.9-0.1-8.7,0.9c-1.4,0.5-2.8,1.1-4.2,1.1s-3.1-1.1-3-2.5c0-0.9,0.6-1.6,1.2-2.2c2.2-2.1,5.2-3.1,8.2-3.2
			c3-0.1,6,0.6,8.8,1.6c3.3,1.1,6.7,2.7,8.7,5.6c0.7-4.6-0.7-10.1-4.9-12.1c-1.7-0.8-3.7-1-5.6-1.1c-4.3-0.3-8.6-0.6-12.8,0.2
			s-8.4,2.9-10.7,6.5c-0.8-3.5,1.6-7.2,4.9-8.7c3.3-1.4,7.2-0.9,10.4,0.8c0.6,0.3,1.5,0.6,1.8,0c0.1-0.2,0.1-0.4,0.1-0.5
			c-0.1-1.8-1.4-3.3-3-4.2c-1.6-0.9-3.4-1.1-5.2-1.2C40.3,1.2,36.1,2.2,32.3,4c-1.9,1-3.7,2.2-4.9,3.9C26.2,9.7,25.7,12,26.5,14z"/>
		<g>
			<path d="M27.1,13.6c-1.5-2.6-4.3-4.2-7-5.3C16.9,7,13.4,7,10,8.1c-3.1,1-6.8,2.7-8.6,5.5c-1.5,2.3-1.3,5.7,1.1,7.3
				c0.3,0.2,0.7,0.1,0.9-0.1C8,17,14.3,15.9,19.9,17.7c-0.1-0.5-0.1-0.9-0.2-1.4c-2.8,1.7-6.1,2.2-9.1,3.4c-2.7,1.1-5,2.8-6.5,5.3
				c-3,5.2-1.5,11.8,3.3,15.4c0.4,0.3,1,0,1.1-0.4c0.9-4.3,2.2-9,5.6-12c1.6-1.5,3.7-2.5,5.8-2.8c1-0.1,2.1,0,3.1,0.3
				c0.6,0.2,1.4,0.5,1.4,1.2c0,0.8-0.8,1.3-1.3,1.6c-0.9,0.5-1.9,0.8-2.7,1.4c-0.9,0.6-1.7,1.3-2.4,2c-1.4,1.5-2.5,3.3-3.5,5.1
				c-2,3.8-3.7,8.3-2.1,12.6c1.5,4.2,5.5,6.9,9.3,8.8c0.6,0.3,1.3-0.2,1.1-0.8c-1.3-5.2-0.1-10.6,2.3-15.3c1.2-2.3,2.7-4.5,4.4-6.4
				c1.7-2,4.1-4.6,7-4c-0.2-0.3-0.3-0.6-0.5-0.9c-1.6,3.9-3.8,7.6-5.4,11.5c-1.6,4-2.4,8.3-2.1,12.6c0.7,7.6,4.9,14.6,11.8,18
				c0.4,0.2,1,0.1,1.1-0.4c0.3-1.4-0.1-2.6-0.6-3.9c-0.6-1.4-1.1-2.8-1.5-4.3c-0.8-2.9-1.3-5.9-1.4-9c-0.1-3,0.2-6.1,0.8-9.1
				c0.3-1.4,0.7-2.8,1.2-4.2c0.5-1.3,1-3.4,2.5-3.8c-0.3-0.1-0.6-0.2-0.8-0.3c1.1,1.8,0.3,4.1-0.1,6c-0.4,2.1-0.6,4.3-0.8,6.4
				c-0.4,4.3-0.3,8.7,0.1,13c0.3,3.3,0.6,6.9,3.3,9.2c2.2,1.9,5.3,2.6,8.1,1.7c0.4-0.1,0.6-0.5,0.5-0.9c-1.4-6.8-2.9-15.1,2.6-20.6
				c-0.4-0.1-0.8-0.2-1.3-0.3c1.2,5.8-0.6,11.6-0.3,17.4c0,0.9,0,2,0.6,2.8c0.8,1,2.1,0.8,3.2,0.9c1.4,0,2.7,0.1,4.1,0.1
				c1.3,0,2.6,0.2,3.8-0.3c2.2-0.8,2.7-3.5,3.1-5.5c0.5-2.5,0.6-5.1,0.1-7.6c-0.4-2.3-1.4-4.4-2.8-6.2c-0.6-0.8-1.4-1.6-2.2-2.2
				c-0.4-0.3-0.8-0.6-1.3-0.9c-0.2-0.1-1.4-0.6-1.5-0.7c-0.1-0.5,1.2,0.1,1.3,0.1c0.4,0.2,0.7,0.4,1,0.6c0.6,0.4,1.3,0.8,1.9,1.3
				c1.3,0.9,2.5,2,3.3,3.3c1.5,2.3,2,5.3,0.2,7.6c-0.5,0.7,0.6,1.5,1.2,0.9c6.5-6.7,6.1-17.8-1.2-23.8c-1.9-1.5-3.9-2.5-6.3-2.9
				c-2.6-0.5-5-1.6-7.4-2.8c-1-0.5-2.2-1-2.9-2c-0.3-0.4-0.5-1-0.3-1.5c0.3-0.8,0.9-0.7,1.6-0.8c2.7-0.1,5.3,0.1,7.9,0.9
				c5.1,1.6,9.6,5.9,9.9,11.5c0.1,0.8,1.2,1,1.5,0.2c1.4-4.8,1.7-10-0.4-14.6c-1.9-4.2-5.5-7.3-10.1-8.3c-2.6-0.6-5.4-0.7-8-0.5
				c-1.1,0.1-2.3,0.2-3.4,0.5c-1.4,0.3-2.7,1-4.1,1.3c-1.1,0.3-2.7,0.3-3.4-0.9c-0.8-1.4,1-2.8,2-3.4c2.1-1.4,4.7-2,7.2-2
				c3.2,0,6.3,0.9,9.2,2c2.7,1,5.3,2.5,7,4.8c0.3,0.5,1.3,0.5,1.4-0.2c0.5-3.4,0.1-7.1-1.9-9.9c-2.4-3.5-6.2-4-10.1-4.3
				C50.1,7,40.1,7.1,34.9,14.8c0.5,0.1,0.9,0.1,1.4,0.2c-0.9-4.6,3.4-8.3,7.7-8.5c2.4-0.1,4.5,0.7,6.7,1.6c1.4,0.6,2.8,0.2,2.7-1.5
				c-0.3-4.1-4.8-5.7-8.3-5.9c-4.6-0.3-9.2,0.8-13.3,2.9c-3.9,2-7.7,6-6,10.7c0.3,0.9,1.8,0.5,1.4-0.4c-1.5-4.2,2.3-7.5,5.7-9.2
				c3.8-1.9,8.3-2.8,12.6-2.4c1.9,0.2,4,0.7,5.3,2.2c0.3,0.4,1.6,2.3,0.7,2.4c-0.3,0-0.9-0.4-1.1-0.5c-0.4-0.2-0.9-0.4-1.3-0.5
				c-3.3-1.2-7.2-1.2-10.1,0.7c-3,1.9-4.8,5.4-4.1,8.9c0.1,0.7,1,0.7,1.4,0.2C40.8,8.8,49.7,8.5,57,9c3.7,0.2,7.8,0.2,10.1,3.5
				c1.8,2.5,2.3,5.9,1.8,8.9c0.5-0.1,0.9-0.1,1.4-0.2c-3-4.2-8.6-6.2-13.5-7.2c-4.7-0.9-10.9-0.5-14.1,3.7c-1.3,1.7-0.9,3.7,0.9,4.8
				c2.3,1.3,4.7,0,6.9-0.7c3-0.9,6.3-0.9,9.4-0.6c3,0.3,5.8,1.2,8,3.3c5,4.6,5.4,11.9,3.5,18c0.5,0.1,1,0.1,1.5,0.2
				c-0.3-4.7-3.1-8.8-7-11.2c-2.2-1.4-4.8-2.2-7.4-2.6c-1.3-0.2-2.7-0.3-4.1-0.3c-1,0-2.3-0.1-3.2,0.6c-1.4,1.2-0.9,3.4,0.3,4.6
				c0.7,0.7,1.7,1.2,2.6,1.7c1.3,0.7,2.6,1.4,3.9,1.9c2.6,1.1,5.6,1.1,8.1,2.6c2.2,1.4,4,3.4,5.2,5.7c2.9,5.6,1.8,12.5-2.6,17.1
				c0.4,0.3,0.8,0.6,1.2,0.9c2.9-3.8,0.7-8.9-2.5-11.7c-0.9-0.8-1.8-1.4-2.8-2.1c-0.9-0.6-2-1.5-3.2-1.6c-1.5-0.1-3,1.8-1.6,2.9
				c0.4,0.3,1.1,0.5,1.6,0.8c0.5,0.3,0.9,0.6,1.3,0.9c1,0.8,1.8,1.8,2.5,2.9c1.5,2.4,2.1,5.2,2,8c0,1.5-0.2,2.9-0.5,4.3
				c-0.3,1.4-0.7,3.2-2.2,3.7c-1.3,0.4-2.9,0.1-4.3,0.1c-0.6,0-1.3,0-1.9-0.1c-0.9,0-2,0.2-2.7-0.4c-1-0.9-0.6-3.7-0.5-5
				c0.1-1.6,0.3-3.3,0.4-4.9c0.3-3.2,0.5-6.4-0.2-9.6c-0.1-0.6-0.9-0.7-1.3-0.3c-5.9,5.9-4.5,14.7-3,22c0.2-0.3,0.3-0.6,0.5-0.9
				c-2.8,0.9-6.1-0.1-7.8-2.6c-1.1-1.5-1.3-3.4-1.5-5.1c-0.2-2-0.4-4-0.5-6c-0.2-4.1,0-8.2,0.6-12.3c0.4-2.9,1.9-6.7,0.3-9.5
				C42.7,37,42.3,36.9,42,37c-2.6,0.8-3.4,4.2-4,6.5c-0.9,3-1.4,6.2-1.5,9.4c-0.1,3.2,0.1,6.4,0.8,9.5c0.3,1.6,0.7,3.1,1.3,4.6
				c0.6,1.6,1.8,3.5,1.5,5.3c0.4-0.1,0.7-0.3,1.1-0.4C34.3,68.3,30.2,61.2,30,53.6c-0.1-4.2,0.9-8.1,2.5-11.9
				c1.6-3.5,3.5-6.9,5-10.5c0.1-0.4-0.2-0.9-0.5-0.9c-2.9-0.6-5.3,1.1-7.2,3.1c-2.1,2.2-4,4.7-5.5,7.3c-2.9,5.2-4.3,11.3-2.9,17.1
				c0.4-0.3,0.7-0.6,1.1-0.8c-4-2-8.4-4.9-9.1-9.7c-0.4-2.8,0.5-5.6,1.6-8.1c1-2.2,2.3-4.4,3.9-6.2c0.7-0.8,1.6-1.6,2.5-2.2
				c1-0.6,2.1-0.9,3.1-1.6c1.4-1.1,2-3.2,0.5-4.4c-1.4-1.2-3.7-1.3-5.4-1c-2,0.3-3.9,1.1-5.6,2.4c-4.2,3.2-5.9,8.5-7,13.5
				c0.4-0.1,0.7-0.3,1.1-0.4c-4.6-3.5-5.4-10.2-1.8-14.7c3.5-4.3,9.6-4.1,14.1-6.8c0.6-0.3,0.4-1.2-0.2-1.4
				c-6.1-2-12.9-0.6-17.8,3.5c0.3,0,0.6-0.1,0.9-0.1C0.8,18,2.2,14.5,4,12.9c2.2-2,5.3-3.3,8.2-3.9c2.7-0.6,5.3-0.3,7.9,0.8
				c2.2,0.9,4.6,2.4,5.8,4.5C26.3,15.2,27.6,14.4,27.1,13.6z"/>
		</g>
	</g>
	<g class="st1">
		<g>
			<path d="M25.3,14.2c1.4,3.8,4.4,6.5,7.4,9c3.7,3.1,7.1,6.4,10.3,9.9c6.6,6.9,12.7,14.5,16.7,23.3c2.2,4.9,3.8,10.1,4.4,15.5
				c0.1,1,1.6,1,1.5,0c-1-9.3-4.8-18.1-10-25.8c-5.4-8-12.1-15.3-19.3-21.7c-3.5-3.1-7.9-6-9.6-10.5C26.4,12.9,24.9,13.3,25.3,14.2
				L25.3,14.2z"/>
		</g>
	</g>
	<g class="st1">
		<g>
			<path d="M31.7,20.4c-0.9-1.5-2.9-1.2-4.4-1.4c-2.1-0.3-4.2-0.1-6.2,0.3c-4,0.9-7.9,2.9-11,5.6c-0.7,0.6,0.3,1.7,1.1,1.1
				c2.7-2.3,5.9-4.1,9.4-5c1.7-0.5,3.5-0.7,5.3-0.6c0.9,0,1.7,0.2,2.5,0.3c0.7,0,1.7-0.1,2.1,0.5C30.9,22,32.2,21.3,31.7,20.4
				L31.7,20.4z"/>
		</g>
	</g>
	<g class="st1">
		<g>
			<path d="M36.1,23.9c1.4-5.9,7.3-10,12.9-11.4c0.9-0.2,0.5-1.7-0.4-1.4c-6,1.6-12.4,6.1-13.9,12.5C34.4,24.4,35.8,24.8,36.1,23.9
				L36.1,23.9z"/>
		</g>
	</g>
	<g class="st1">
		<g>
			<path d="M37.5,25.7c-2.5,0.3-5,1.2-7.4,2.2c-1.6,0.7-3,1.7-4.3,2.9c-4.2,3.7-7.2,8.6-9,13.8c-0.3,0.9,1.1,1.3,1.4,0.4
				c1.7-4.9,4.5-9.5,8.4-13c1.2-1,2.4-2,3.9-2.6c2.1-1,4.6-1.9,6.9-2.1C38.5,27.1,38.5,25.6,37.5,25.7L37.5,25.7z"/>
		</g>
	</g>
	<g class="st1">
		<g>
			<path d="M44.6,32c0.4-2.1,2.5-4,4.3-5c1.3-0.8,2.8-1.3,4.3-1.6c4.2-0.8,8.8,0.5,12.8,1.6c0.9,0.3,1.3-1.2,0.4-1.4
				C62,24.4,57,23,52.4,24c-1.7,0.4-3.4,1.1-4.8,2c-1.9,1.3-4,3.2-4.4,5.5C43,32.6,44.4,33,44.6,32L44.6,32z"/>
		</g>
	</g>
	<g class="st1">
		<g>
			<path d="M48.9,39.1c-2.1,4.7-3.1,9.8-3.6,14.9c-0.4,4.2-0.6,8.6,0,12.8c0.1,0.9,1.6,1,1.5,0c-0.5-4-0.4-8.1,0-12.1
				c0.4-5,1.3-10.2,3.4-14.8C50.6,39,49.3,38.2,48.9,39.1L48.9,39.1z"/>
		</g>
	</g>
	<g class="st1">
		<g>
			<path d="M55.5,46.6c3.6-1.5,7.6-1.4,11.1,0.3c0.9,0.4,1.6-0.9,0.8-1.3c-3.8-1.9-8.3-2.1-12.2-0.5c-0.4,0.2-0.6,0.5-0.5,0.9
				C54.7,46.4,55.1,46.7,55.5,46.6L55.5,46.6z"/>
		</g>
	</g>
</g>
<g id="Layer_3" class="st0">
	<g class="st1">
		<path d="M57.4,36c-1.1,0.2-2.7-0.2-3.8-0.5c-2.8-0.7-6.9-2.9-9.1-4.6c-1.3-1-2.2-2.3-3-3.6c-2.3-3.7-3.7-8.9-3.4-13.1
			c-0.3,1.6-0.6,3-1.2,4.4c-1.8,3.9-3.7,7.8-6.9,10.9S22.3,35,17.4,35c2.1,0.1,4.2,0.3,6.1,1c2.1,0.8,3.8,2.1,5.2,3.6
			c5.9,6,8.2,14,9.5,21.8C38.4,57.1,40,53,41.6,49c1.1-2.8,2.3-5.5,5.1-7.7c2.4-1.9,7.5-4.6,10.8-5.3"/>
		<g>
			<path d="M57.4,34.8C55.1,35,52.5,34,50.5,33c-2.1-1-4.5-2.2-6.1-3.9c-3.5-3.7-5.2-9.8-5-14.8c0.1-1.4-2.2-1.7-2.5-0.3
				c-1.9,9.3-9.1,19.8-19.5,19.8c-1.6,0-1.6,2.4,0,2.5c3.2,0.2,6.1,0.6,8.7,2.7c2.3,1.8,4.2,4.2,5.7,6.7c2.9,4.9,4.3,10.5,5.3,16.1
				c0.2,1.5,2.4,1,2.5-0.3c0.2-3.2,1.1-6.2,2.2-9.2c1-2.6,1.9-5.3,3.5-7.6c1.4-2,3.5-3.3,5.7-4.5c2.2-1.2,4.5-2.3,6.9-2.9
				c1.6-0.4,0.9-2.8-0.7-2.4c-2.6,0.7-5.2,1.9-7.5,3.2c-2.4,1.3-4.7,2.9-6.3,5.1c-1.8,2.4-2.8,5.4-3.9,8.3
				c-1.2,3.3-2.2,6.6-2.4,10.1c0.8-0.1,1.6-0.2,2.5-0.3c-1.1-6.2-2.7-12.4-6.2-17.8c-1.7-2.6-3.8-5-6.3-6.9c-2.9-2-6.2-2.5-9.6-2.7
				c0,0.8,0,1.7,0,2.5c5.5,0,10.8-2.6,14.4-6.7c3.7-4.1,6.4-9.5,7.5-14.9c-0.8-0.1-1.6-0.2-2.5-0.3c-0.2,5.7,1.8,12.4,5.7,16.6
				c1.9,2,4.6,3.4,7,4.5c2.3,1.1,5.2,2.2,7.8,1.9C59,37.1,59,34.6,57.4,34.8L57.4,34.8z"/>
		</g>
	</g>
	<g class="st1">
		<g>
			<path d="M4.6,36.2c3.5,0.1,7,0.1,10.5,0.2c1.6,0,1.6-2.5,0-2.5c-3.5-0.1-7-0.1-10.5-0.2C2.9,33.7,2.9,36.2,4.6,36.2L4.6,36.2z"/>
		</g>
	</g>
	<g class="st1">
		<g>
			<path d="M5.8,34.6C7.2,23.9,14,14.2,23.5,9.2C25,8.4,23.7,6.3,22.3,7c-10.3,5.5-17.5,16-19,27.5C3.1,36.2,5.6,36.2,5.8,34.6
				L5.8,34.6z"/>
		</g>
	</g>
	<ellipse class="st5" cx="37.4" cy="37.8" rx="36.5" ry="36.3"/>
	<g class="st1">
		<g>
			<path d="M37.3,63.6c0.1,3.4,0.3,6.7,0.4,10.1c0,0.7,0.6,1.3,1.3,1.3c0.7,0,1.3-0.6,1.3-1.3c-0.1-3.4-0.3-6.7-0.4-10.1
				c0-0.7-0.6-1.3-1.3-1.3C37.9,62.4,37.2,63,37.3,63.6L37.3,63.6z"/>
		</g>
	</g>
	<g class="st1">
		<g>
			<path d="M61.6,37.1c0.8,0,1.5,0,2.3,0.1c-0.1,0-0.2,0-0.3,0c0.1,0,0.3,0,0.4,0.1c0.3,0.1,0.7,0.1,1-0.1c0.3-0.2,0.5-0.4,0.6-0.7
				c0.1-0.3,0.1-0.7-0.1-1c-0.2-0.3-0.4-0.5-0.7-0.6c-1-0.2-2-0.3-3-0.2c-0.3,0-0.6,0.1-0.9,0.4c-0.2,0.2-0.4,0.6-0.4,0.9
				c0,0.3,0.1,0.7,0.4,0.9C61,36.9,61.3,37.1,61.6,37.1L61.6,37.1z"/>
		</g>
	</g>
	<g class="st1">
		<g>
			<path d="M67.9,37c1.8,0,3.5,0.1,5.3,0.1c0.7,0,1.3-0.6,1.3-1.3c0-0.7-0.5-1.2-1.3-1.3c-1.8,0-3.5-0.1-5.3-0.1
				c-0.7,0-1.3,0.6-1.3,1.3C66.7,36.4,67.2,36.9,67.9,37L67.9,37z"/>
		</g>
	</g>
	<g class="st1">
		<g>
			<path d="M36.6,3.7c0,2.2,0,4.5-0.1,6.7c0,0.7,0.6,1.3,1.3,1.3c0.7,0,1.2-0.5,1.3-1.3c0.1-2.2,0.1-4.5,0.1-6.7
				c0-0.7-0.6-1.3-1.3-1.3C37.2,2.5,36.6,3,36.6,3.7L36.6,3.7z"/>
		</g>
	</g>
	<g class="st1">
		<g>
			<path d="M26.5,44.3c-1.1,1.3-2.2,2.6-3.5,3.7c-0.6,0.6-1.2,1.1-1.9,1.6c-0.3,0.2-0.5,0.4-0.8,0.6c-0.4,0.3-0.7,0.5-1.1,0.8
				c-0.5,0.4-0.8,1.1-0.4,1.7c0.3,0.5,1.1,0.8,1.7,0.4c2.9-2,5.5-4.4,7.8-7.1c0.4-0.5,0.5-1.3,0-1.8C27.8,43.9,27,43.8,26.5,44.3
				L26.5,44.3z"/>
		</g>
	</g>
	<g class="st1">
		<g>
			<path d="M14.7,55.8c-0.3,0.3-0.5,0.6-0.8,0.9c-0.1,0.1-0.2,0.2-0.3,0.4c-0.1,0.1-0.1,0.3-0.1,0.5c0,0.2,0,0.3,0.1,0.5
				c0.1,0.2,0.1,0.3,0.3,0.4c0.1,0.1,0.2,0.1,0.3,0.2c0.2,0.1,0.4,0.2,0.6,0.2c0.1,0,0.2,0,0.3,0c0.2-0.1,0.4-0.2,0.6-0.3
				c0.3-0.3,0.5-0.6,0.8-0.9c0.1-0.1,0.2-0.2,0.3-0.4c0.1-0.1,0.1-0.3,0.1-0.5c0-0.2,0-0.3-0.1-0.5c-0.1-0.2-0.1-0.3-0.3-0.4
				c-0.1-0.1-0.2-0.1-0.3-0.2c-0.2-0.1-0.4-0.2-0.6-0.2c-0.1,0-0.2,0-0.3,0C15,55.5,14.8,55.6,14.7,55.8L14.7,55.8z"/>
		</g>
	</g>
	<g class="st1">
		<g>
			<path d="M47.3,28.7c0.7-0.5,1.4-1.1,2-1.7c0.2-0.2,0.4-0.6,0.4-0.9c0-0.2,0-0.3-0.1-0.5c-0.1-0.2-0.1-0.3-0.3-0.4
				c-0.2-0.2-0.6-0.4-0.9-0.4c-0.3,0-0.7,0.1-0.9,0.4c-0.4,0.4-0.8,0.8-1.3,1.2c0.1-0.1,0.2-0.1,0.3-0.2c-0.1,0.1-0.3,0.2-0.4,0.3
				c-0.1,0.1-0.3,0.2-0.4,0.3c-0.1,0.1-0.2,0.3-0.2,0.4c-0.1,0.2-0.1,0.3,0,0.5c0,0.2,0.1,0.3,0.1,0.5c0.2,0.3,0.4,0.5,0.7,0.6
				C46.6,28.9,47,28.9,47.3,28.7L47.3,28.7z"/>
		</g>
	</g>
	<g class="st1">
		<g>
			<path d="M51.4,25.2c2.7-2.5,5.5-4.9,8.3-7.1c0.5-0.4,0.4-1.3,0-1.8c-0.5-0.5-1.2-0.4-1.8,0c-2.9,2.3-5.7,4.6-8.3,7.1
				c-0.5,0.5-0.5,1.3,0,1.8C50.1,25.7,50.9,25.7,51.4,25.2L51.4,25.2z"/>
		</g>
	</g>
	<g class="st1">
		<g>
			<path d="M46.6,47.5c3.1,3.3,6.1,6.7,9.2,10c1.1,1.2,2.9-0.6,1.8-1.8c-3.1-3.3-6.1-6.7-9.2-10C47.3,44.6,45.5,46.3,46.6,47.5
				L46.6,47.5z"/>
		</g>
	</g>
	<g class="st1">
		<g>
			<path d="M58.6,60.6c0.2,0.3,0.4,0.6,0.5,0.9c0.1,0.1,0.2,0.3,0.3,0.4c0.1,0.1,0.3,0.2,0.4,0.2c0.2,0.1,0.3,0.1,0.5,0
				c0.2,0,0.3-0.1,0.5-0.1c0.1-0.1,0.2-0.1,0.3-0.2c0.2-0.2,0.3-0.3,0.3-0.6c0-0.1,0-0.2,0-0.3c0-0.2-0.1-0.4-0.2-0.6
				c-0.2-0.3-0.4-0.6-0.5-0.9c-0.1-0.1-0.2-0.3-0.3-0.4c-0.1-0.1-0.3-0.2-0.4-0.2c-0.2-0.1-0.3-0.1-0.5,0c-0.2,0-0.3,0.1-0.5,0.1
				c-0.1,0.1-0.2,0.1-0.3,0.2c-0.2,0.2-0.3,0.3-0.3,0.6c0,0.1,0,0.2,0,0.3C58.4,60.2,58.4,60.4,58.6,60.6L58.6,60.6z"/>
		</g>
	</g>
	<g class="st1">
		<g>
			<path d="M23.5,24.1C23.5,24.1,23.5,24.1,23.5,24.1c-0.1,0-0.1-0.1-0.2-0.2c0.6,0.5,1.2,1,1.7,1.7c-0.1-0.1-0.1-0.2-0.2-0.3
				c0,0,0,0,0.1,0.1c0.1,0.1,0.2,0.3,0.3,0.4c0.1,0.1,0.3,0.2,0.4,0.2c0.2,0.1,0.3,0.1,0.5,0c0.2,0,0.3-0.1,0.5-0.1
				c0.3-0.2,0.5-0.4,0.6-0.7c0-0.1,0-0.2,0-0.3c0-0.2-0.1-0.4-0.2-0.6c-0.3-0.4-0.6-0.8-1-1.2c-0.4-0.4-0.8-0.7-1.2-1
				c-0.1-0.1-0.3-0.1-0.5-0.1c-0.2,0-0.3,0-0.5,0c-0.3,0.1-0.6,0.3-0.7,0.6c-0.2,0.3-0.2,0.6-0.1,1c0,0.1,0.1,0.2,0.1,0.3
				C23.1,23.9,23.3,24,23.5,24.1L23.5,24.1z"/>
		</g>
	</g>
</g>
<g id="Layer_4">
	<g>
		<g>
			<path class="st6" d="M38.9,39.4c0.8,2,2.1,7,2.9,9c1.5,3.7,3,7.5,5.3,10.8c2.3,3.3,5.4,6.2,9.3,7.5c3.9,1.3,8.4,0.8,11.9-1.2
				c2.2-1.3,4.1-3.4,4.2-5.9c0.1-2.2-1.2-4.2-2.8-5.7C61.5,45.9,47.4,46.9,38.9,39.4"/>
			<g>
				<path d="M38.2,39.6c1,2.5,1.6,5.1,2.4,7.6c1.1,3.3,2.5,6.5,4.1,9.5c3.2,5.9,8.4,11.1,15.5,11.4c5.5,0.3,15-3.6,12.7-10.7
					c-1-2.9-3.6-5.1-6.1-6.7c-2.5-1.6-5.3-2.7-8.1-3.6c-6.6-2.2-13.9-3.5-19.3-8.1c-0.7-0.6-1.8,0.4-1.1,1.1
					c4.1,3.6,9.3,5.3,14.5,6.8c5.3,1.6,10.9,3,15.2,6.7c2.5,2.1,4.8,5.3,2.8,8.5c-1.8,2.9-5.4,4.3-8.7,4.6c-6.9,0.6-12.4-4-15.7-9.7
					c-1.8-3.1-3.3-6.5-4.4-9.8c-0.9-2.6-1.5-5.3-2.5-7.9C39.3,38.3,37.8,38.7,38.2,39.6L38.2,39.6z"/>
			</g>
		</g>
		<g>
			<path class="st6" d="M37.6,38.9c2-0.8,7.1-2.2,9.1-3.1c3.8-1.6,7.5-3.2,10.9-5.5c3.3-2.3,6.2-5.5,7.4-9.3
				c1.2-3.8,0.6-8.2-1.6-11.6c-1.4-2.1-3.6-3.9-6.1-3.9c-2.2,0-4.2,1.3-5.7,2.9C43.6,16.6,45,30.4,37.6,38.9"/>
			<g>
				<path d="M37.8,39.6c2.5-1,5.1-1.7,7.7-2.5c3.2-1.1,6.4-2.6,9.4-4.2c5.8-3.2,11.2-8.4,11.4-15.4C66.5,12,62.4,3.2,55.5,5
					c-3,0.8-5.2,3.3-6.9,5.7c-1.7,2.5-2.8,5.3-3.7,8.1c-2.2,6.6-3.2,14-7.9,19.5c-0.6,0.7,0.4,1.8,1.1,1.1c3.6-4.2,5.2-9.5,6.7-14.7
					c1.5-5.2,2.9-10.8,6.5-15c2.2-2.5,5.5-4.6,8.7-2.6c2.8,1.7,4.3,5.2,4.7,8.3c0.8,6.8-4,12.1-9.5,15.4c-3.1,1.8-6.5,3.4-9.9,4.6
					c-2.6,0.9-5.4,1.6-8,2.6C36.5,38.5,36.9,40,37.8,39.6L37.8,39.6z"/>
			</g>
		</g>
		<g>
			<path class="st6" d="M35.1,38.9c-0.9-2-2.2-7-3.1-8.9c-1.6-3.7-3.2-7.4-5.6-10.6s-5.6-6.1-9.5-7.3c-3.9-1.2-8.4-0.6-11.8,1.5
				c-2.1,1.3-4,3.5-4,6c0,2.2,1.3,4.1,2.9,5.6C12.2,33,26.3,31.6,35.1,38.9"/>
			<g>
				<path d="M35.7,38.5c-1-2.5-1.7-5.1-2.6-7.6c-1.2-3.2-2.7-6.4-4.4-9.3c-3.4-5.8-8.8-10.8-15.9-10.9c-5.4-0.1-14.6,4-12.3,10.9
					c1,2.9,3.5,5,6,6.5c2.5,1.6,5.4,2.7,8.2,3.5c6.7,2.1,14.1,3.1,19.7,7.7c0.7,0.6,1.8-0.4,1.1-1.1c-4.3-3.5-9.6-5.1-14.8-6.5
					C15.4,30.4,9.6,29,5.3,25.4c-2.5-2.1-4.7-5.3-2.6-8.5c1.8-2.8,5.4-4.2,8.5-4.6c7-0.7,12.6,4,16,9.7c1.8,3,3.4,6.3,4.6,9.6
					c0.9,2.6,1.6,5.2,2.6,7.7C34.8,40.2,36.1,39.4,35.7,38.5L35.7,38.5z"/>
			</g>
		</g>
		<g>
			<path class="st6" d="M35.1,39.4c-1.9,1-6.9,2.7-8.9,3.7c-3.6,1.8-7.3,3.7-10.4,6.2S10,55.1,9,59c-0.9,3.9,0,8.2,2.4,11.5
				c1.5,2,3.8,3.7,6.4,3.5c2.2-0.1,4.1-1.6,5.5-3.3C30.6,62.1,28.2,48.4,35.1,39.4"/>
			<g>
				<path d="M34.7,38.7c-2.4,1.2-5.1,2-7.6,3.1c-3.1,1.3-6.2,3-9,4.8c-5.5,3.6-10.5,9.2-10.2,16.2c0.3,5.5,4.9,13.8,11.6,11.6
					c2.9-1,5-3.6,6.5-6.2c1.5-2.6,2.4-5.4,3.1-8.3c1.7-6.8,2.3-14.3,6.6-20.1c0.6-0.8-0.7-1.5-1.3-0.8c-3.3,4.5-4.5,10.1-5.7,15.5
					c-1.1,5.5-2.3,11.4-6,15.7c-2.2,2.6-5.4,4.1-8.5,2c-2.7-1.8-4.3-5.1-4.7-8.2c-1-6.8,3.8-12.4,9.1-16c2.9-1.9,6.1-3.7,9.4-5
					c2.5-1,5-1.8,7.4-3C36.3,39.6,35.5,38.3,34.7,38.7L34.7,38.7z"/>
			</g>
		</g>
	</g>
	<g>
		<path class="st6" d="M27.8,34c-4.6-4-7.8-9.6-8.1-15.5s2.5-12.2,7.7-15.4s12.6-2.8,16.9,1.5c3.5,3.4,4.6,8.7,3.9,13.6
			s-3,9.3-5.4,13.5c3.8-4.9,10.4-7.5,16.6-6.6c6.2,0.9,11.7,5.2,14,10.9c1.3,3.2,1.4,7.2-0.8,9.8c-1.4,1.7-3.5,2.6-5.6,3.2
			c-3.6,1.1-7.5,1.7-11.1,0.9s-7.1-3.1-8.6-6.5c3.5,5.6,4.9,12.4,3.7,18.9c-0.6,3.7-2.4,7.6-5.8,9.3c-3.9,1.9-8.8,0.3-11.8-2.7
			c-3-3.1-4.3-7.3-5.1-11.5c-1-5.1-1-11,2.8-14.6c-5.5,4.3-12.6,6.7-19.7,6.6c-3.6-0.1-7.8-1.1-9.4-4.3c-1.3-2.6-0.6-5.8,0.9-8.2
			c2.4-4,6.9-7,11.6-7.4S25.1,30.2,27.8,34z"/>
		<g>
			<path d="M28.4,33.5c-4-3.5-7-8.2-7.8-13.6c-0.7-5,0.9-10.3,4.4-14c3.4-3.5,8.6-4.9,13.3-3.7c5.2,1.3,8.4,5.6,9.1,10.8
				c0.9,6.6-2.2,12.8-5.4,18.3c-0.4,0.7,0.6,1.6,1.2,0.9c6-7.5,17.2-8.7,24.5-2.5c3.4,2.8,6,7.2,5.6,11.8c-0.5,5.6-6.8,7.3-11.5,7.9
				c-5.4,0.7-11.7-1-14.1-6.4c-0.4,0.3-0.9,0.5-1.3,0.8c2.5,4.1,4,8.9,4,13.7c0,4.2-0.7,9.2-3.9,12.2c-3.5,3.2-8.7,2.2-12.1-0.7
				c-3.5-3-4.9-7.7-5.7-12.1c-0.8-4.6-0.9-10,2.6-13.5c0.7-0.7-0.3-1.6-1.1-1.1c-3.7,2.9-8.2,4.9-12.8,5.8c-4,0.8-9,1.2-12.6-0.9
				C0.5,44.7,1.6,39.4,4.2,36c2.6-3.4,6.7-5.6,11-5.9c4.2-0.2,9.4,0.7,12,4.3c0.6,0.8,1.9,0,1.3-0.8c-2.7-3.6-7.4-5-11.8-5.1
				c-4.8-0.1-9.5,1.7-12.8,5.3C1,37.1-1.3,42.5,1.7,46.4c2.9,3.7,8.5,3.9,12.8,3.5c6.1-0.6,11.9-2.9,16.8-6.7
				c-0.4-0.4-0.7-0.7-1.1-1.1c-3.5,3.4-3.9,8.4-3.3,13c0.6,4.9,2.1,10.3,5.6,14c3.1,3.3,8.3,5.1,12.6,3.1c4.4-2.1,6.1-7.2,6.6-11.7
				c0.7-6.1-0.8-12.4-4.1-17.6c-0.5-0.8-1.7-0.1-1.3,0.8C48.6,48.6,54,51,59.2,51c3.1,0,6.3-0.7,9.2-1.8c2.3-0.9,4.5-2.3,5.6-4.6
				c2.2-4.6,0-10.2-3-13.8c-3.3-3.9-8.2-6.4-13.2-6.7c-5.9-0.3-11.9,2.4-15.6,7c0.4,0.3,0.8,0.6,1.2,0.9c3.1-5.5,6.2-11.5,5.7-18
				c-0.4-5.4-3.2-10.5-8.3-12.6c-4.9-2-10.8-1.3-15,1.9c-4.3,3.3-6.8,8.7-6.8,14.1c0,6.7,3.5,12.9,8.4,17.2
				C28,35.2,29.1,34.1,28.4,33.5z"/>
		</g>
	</g>
	<g>
		<g>
			<path d="M39.6,31c-3.2-0.4-7.2,0.5-9.3,3.1c-1.3,1.5-1.1,3.3-0.4,5.1c0.6,1.5,1.3,2.9,2.4,4c1.2,1.2,2.8,1.8,4.5,2
				c1.9,0.2,4,0.2,5.7-0.5c2.8-1.1,4.1-4.3,3.3-7.1c-0.5-1.6-1.5-3.1-2.6-4.3c-0.6-0.6-1.2-1.2-1.9-1.7c-0.6-0.5-1.1-0.8-1.9-0.6
				c-0.9,0.2-0.5,1.7,0.4,1.4c0.1,0,0.2-0.1,0.4-0.1c-0.2,0-0.4-0.1-0.6-0.1c2,1.1,3.9,3.2,4.7,5.3c0.8,2.1,0.1,4.6-2,5.6
				c-1.3,0.7-2.9,0.6-4.4,0.6c-1.5-0.1-2.9-0.3-4.1-1.3c-1-0.8-1.6-1.9-2.1-3c-0.6-1.3-1.3-3-0.2-4.3c1.8-2.3,5.5-3,8.2-2.6
				C40.5,32.6,40.5,31.1,39.6,31z"/>
		</g>
	</g>
	<g>
		<g>
			<path d="M36.9,31.2c1-6.9-0.5-13.6-2.1-20.3c-0.2-0.9-1.7-0.5-1.4,0.4c1.6,6.3,3.2,12.9,2.1,19.5C35.4,31.7,36.8,32.1,36.9,31.2
				L36.9,31.2z"/>
		</g>
	</g>
	<g>
		<g>
			<path d="M44.6,38.4c2.7,1.6,6.1,1.4,9.1,1c3.3-0.5,6.6-1.5,9.6-3.1c0.9-0.4,0.1-1.7-0.8-1.3c-2.7,1.4-5.6,2.3-8.6,2.8
				c-2.7,0.4-6.1,0.8-8.6-0.7C44.5,36.6,43.8,37.9,44.6,38.4L44.6,38.4z"/>
		</g>
	</g>
	<g>
		<g>
			<path d="M38.5,45.6c1.8,4.8,2.1,10.1,0.8,15c-0.2,0.9,1.2,1.3,1.4,0.4c1.3-5.2,1-10.8-0.8-15.8C39.7,44.3,38.2,44.7,38.5,45.6
				L38.5,45.6z"/>
		</g>
	</g>
	<g>
		<g>
			<path d="M29.4,37.7c-4.4,0.7-8.7,1-13.1,1.1c-1,0-1,1.5,0,1.5c4.5-0.1,9.1-0.4,13.5-1.1C30.7,39,30.3,37.5,29.4,37.7L29.4,37.7z"
				/>
		</g>
	</g>
	<g>
		<g>
			<path d="M26.9,46.2c-4,4.6-7,10.1-8.7,16c-0.3,0.9,1.2,1.3,1.4,0.4c1.6-5.6,4.5-10.9,8.3-15.3C28.5,46.5,27.5,45.4,26.9,46.2
				L26.9,46.2z"/>
		</g>
	</g>
	<g>
		<g>
			<path d="M22.5,28.3c-2.2-1.9-4.3-4-6.6-5.7c-2.3-1.7-5-2.7-7.6-3.7c-0.9-0.3-1.3,1.1-0.4,1.4c2.5,0.9,5.1,1.9,7.2,3.5
				c2.2,1.6,4.2,3.6,6.3,5.5C22.2,30,23.2,29,22.5,28.3L22.5,28.3z"/>
		</g>
	</g>
	<g>
		<g>
			<path d="M45.1,29c4.5-3.7,8.4-8.1,11.5-13c0.5-0.8-0.8-1.6-1.3-0.8c-3.1,4.8-6.9,9.1-11.3,12.7C43.3,28.5,44.4,29.6,45.1,29
				L45.1,29z"/>
		</g>
	</g>
	<g>
		<g>
			<path d="M49.7,48.5c2.4,4.8,6.4,8.8,11.3,11.2c0.9,0.4,1.6-0.9,0.8-1.3c-4.7-2.3-8.5-6-10.8-10.6C50.5,46.9,49.3,47.6,49.7,48.5
				L49.7,48.5z"/>
		</g>
	</g>
	<g>
		<g>
			<path d="M34,37c1,0,1-1.5,0-1.5C33,35.5,33,37,34,37L34,37z"/>
		</g>
	</g>
	<g>
		<g>
			<path d="M38.1,35.5c1,0,1-1.5,0-1.5C37.1,34,37.1,35.5,38.1,35.5L38.1,35.5z"/>
		</g>
	</g>
	<g>
		<g>
			<path d="M37.5,39.1c1,0,1-1.5,0-1.5C36.5,37.6,36.5,39.1,37.5,39.1L37.5,39.1z"/>
		</g>
	</g>
	<g>
		<g>
			<path d="M35.9,41.4c1,0,1-1.5,0-1.5C35,39.9,35,41.4,35.9,41.4L35.9,41.4z"/>
		</g>
	</g>
	<g>
		<g>
			<path d="M40.8,42c1,0,1-1.5,0-1.5C39.9,40.5,39.9,42,40.8,42L40.8,42z"/>
		</g>
	</g>
	<g>
		<g>
			<path d="M41.2,38.4c1,0,1-1.5,0-1.5C40.3,36.9,40.3,38.4,41.2,38.4L41.2,38.4z"/>
		</g>
	</g>
</g>
</svg>
