<?xml version="1.0" encoding="utf-8"?>
<!-- Generator: Adobe Illustrator 23.1.0, SVG Export Plug-In . SVG Version: 6.00 Build 0)  -->
<svg version="1.1" xmlns="http://www.w3.org/2000/svg" xmlns:xlink="http://www.w3.org/1999/xlink" x="0px" y="0px"
	 viewBox="0 0 75 75" style="enable-background:new 0 0 75 75;" xml:space="preserve">
<style type="text/css">
	.st0{display:none;}
	.st1{display:inline;}
	.st2{fill:#3953A4;}
	.st3{fill:#A9D5F2;}
	.st4{fill:#0C8140;}
	.st5{display:inline;fill:none;stroke:#000000;stroke-width:2;stroke-miterlimit:10;}
	.st6{fill:#F7EC13;}
	.st7{fill:#808080;}
	.st8{fill:#DBD9DB;}
	.st9{fill:#FAA41A;}
	.st10{fill:#ED2024;}
	.st11{fill:#7C287D;}
	.st12{fill:#BF64A7;}
	.st13{fill:#E5B4D3;}
	.st14{fill:#EBC3DC;}
	.st15{fill:#DBA7CD;}
	.st16{fill:#FFFFFF;stroke:#000000;stroke-miterlimit:10;}
</style>
<g id="Layer_1" class="st0">
	<g class="st1">
		<path class="st2" d="M38.9,1.1c-0.3,3.6-3.8,6.6-7.1,9.1c-6.4,4.9-13.1,9.7-18.6,15.3S3.2,37.4,1.8,44.3S2.4,58.7,8.4,64
			c4.9,4.3,11.5,7.8,19.1,8.6c10,1,15.4,1.4,24,0.2c6.8-1,11.2-4,13.9-6.1c1.9-1.5,7.8-7.2,7.7-15.4c0-5.3-4.7-14.6-8.9-18.8
			c-3.6-3.6-4.3-4.2-7.9-7.9C50.1,18.1,41.2,9.1,38.9,1.1z"/>
		<g>
			<path d="M37.7,1.1c-0.4,3.8-4.5,6.5-7.2,8.6c-3.6,2.8-7.3,5.5-10.8,8.3C13.2,23.3,6.9,29.3,3.1,36.8c-3.3,6.6-4.1,14.2-1,21
				c3.1,6.8,10.1,11.4,16.9,14c3.9,1.5,8,2,12.2,2.3c3.8,0.4,7.6,0.6,11.3,0.6c7.3-0.1,14.6-1.2,20.9-5.2c4.4-2.8,7.9-6.7,9.8-11.7
				c1.2-3.1,1.5-6.5,0.8-9.7c-0.7-3.3-2.1-6.5-3.8-9.5c-1.7-3-3.7-5.7-6.1-8.1c-2.4-2.4-4.8-4.7-7.2-7.2c-5.4-5.5-11.1-11.2-14.9-18
				c-0.8-1.5-1.5-3-2-4.7c-0.5-1.5-2.9-0.9-2.4,0.7c2.1,6.9,7.1,12.7,11.9,17.8c2.5,2.7,5,5.3,7.6,7.9c2.2,2.2,4.6,4.4,6.7,6.7
				c2.2,2.4,3.9,5.3,5.3,8.2c1.3,2.7,2.5,5.7,2.7,8.6c0.3,5.6-2.8,11.2-7,14.7c-1.8,1.5-4.3,3-6.6,4c-3.5,1.5-7.2,2.1-11,2.4
				c-3.4,0.3-6.8,0.3-10.3,0.1c-4-0.2-8.1-0.4-12-1.2c-3.7-0.7-7.2-2.1-10.5-4c-3.1-1.8-6.2-4.1-8.3-7.1C2,54,1.7,46.5,4.4,39.9
				c3.1-7.5,9.1-13.4,15.2-18.6c3.3-2.8,6.8-5.4,10.2-8c3-2.3,6.4-4.5,8.6-7.7c1-1.4,1.6-2.9,1.7-4.6C40.3-0.5,37.8-0.5,37.7,1.1z"
				/>
		</g>
	</g>
	<g class="st1">
		<path class="st3" d="M32,12.8c-6.9,6.9-17.7,11.9-22.2,19.8C9,34.2,8.3,35.8,8,37.4c-0.3,1.4-0.4,2.9,0.6,4.1
			c1.5,1.9,5.1,2.4,7.9,1.5s4.7-2.7,6-4.6C27.3,31.4,28,20.1,32,12.8"/>
	</g>
</g>
<g id="Layer_2" class="st0">
	<g class="st1">
		<path class="st4" d="M26.5,14c-1.7-3.1-6.9-5.6-10.4-5.9c-3.5-0.3-7,0.9-10.1,2.6c-1.8,1-3.5,2.3-4.4,4.2S1.2,19.2,3,20.3
			c4.6-4,11.4-5.3,17.1-3.3c-3.7,2.3-8.4,2.5-12,4.9c-2.9,2-4.7,5.4-4.8,8.9c-0.1,3.5,1.7,7,4.5,9c0.9-4,2.1-8.2,4.8-11.3
			s7.2-5.1,11-3.7c0.5,0.2,1.1,0.5,1.4,1c0.5,0.8,0.1,2-0.6,2.6c-0.7,0.6-1.7,1-2.5,1.4c-2.9,1.5-4.9,4.4-6.5,7.3
			c-1.9,3.5-3.4,7.5-2.4,11.3c1.1,4.4,5.2,7.3,9.3,9.3c-2.2-8.3,2-17.2,7.9-23.5c1.8-1.9,4.2-3.8,6.7-3.2c-2,4.9-4.9,9.4-6.4,14.4
			c-1.5,5-1.5,10.5,0.3,15.4c1.8,4.9,5.4,9.2,10.1,11.5c0.4-1.2-0.2-2.5-0.7-3.7c-3.7-8.9-3.8-19.3-0.2-28.3
			c0.5-1.2,1.2-2.4,2.4-2.7c1,1.5,0.6,3.4,0.3,5.2c-1.5,7.6-1.7,15.4-0.7,23c0.2,1.2,0.4,2.5,0.9,3.7c1.5,3.4,5.8,5.3,9.3,4.1
			c-0.8-3.7-1.5-7.4-1.3-11.1c0.2-3.7,1.4-7.6,4.1-10.2c1.3,6-0.7,12.3-0.3,18.5c0,0.6,0.1,1.2,0.6,1.6c0.4,0.3,0.9,0.4,1.4,0.4
			c2.1,0.1,4.2,0.1,6.3,0.2c1,0,2,0,2.8-0.5c1-0.6,1.5-1.8,1.8-3c0.9-3.5,1.1-7.3,0-10.8s-3.7-6.6-7-7.9c-0.5-0.5,0-1.4,0.7-1.5
			c0.7-0.1,1.3,0.2,1.9,0.6c2.4,1.5,4.9,3.2,6.4,5.6c1.5,2.4,1.8,5.8,0,8c3.1-3.1,4.8-7.6,4.4-12s-2.7-8.6-6.2-11.2
			c-1.1-0.8-2.3-1.5-3.7-1.9C63,38.1,62,38,61,37.7c-2.4-0.6-4.7-1.8-6.9-2.9c-1-0.6-2.2-1.2-2.7-2.2c-0.6-1-0.3-2.6,0.9-3
			c4.4-0.4,9,0.2,12.9,2.4c3.8,2.2,6.8,6.3,7,10.7c1.2-3.8,1.5-8,0.4-11.9s-3.7-7.4-7.4-9.1c-2.1-1-4.4-1.3-6.7-1.4
			c-2.9-0.2-5.9-0.1-8.7,0.9c-1.4,0.5-2.8,1.1-4.2,1.1s-3.1-1.1-3-2.5c0-0.9,0.6-1.6,1.2-2.2c2.2-2.1,5.2-3.1,8.2-3.2
			c3-0.1,6,0.6,8.8,1.6c3.3,1.1,6.7,2.7,8.7,5.6c0.7-4.6-0.7-10.1-4.9-12.1c-1.7-0.8-3.7-1-5.6-1.1c-4.3-0.3-8.6-0.6-12.8,0.2
			s-8.4,2.9-10.7,6.5c-0.8-3.5,1.6-7.2,4.9-8.7c3.3-1.4,7.2-0.9,10.4,0.8c0.6,0.3,1.5,0.6,1.8,0c0.1-0.2,0.1-0.4,0.1-0.5
			c-0.1-1.8-1.4-3.3-3-4.2c-1.6-0.9-3.4-1.1-5.2-1.2C40.3,1.2,36.1,2.2,32.3,4c-1.9,1-3.7,2.2-4.9,3.9C26.2,9.7,25.7,12,26.5,14z"/>
		<g>
			<path d="M27.1,13.6c-1.5-2.6-4.3-4.2-7-5.3C16.9,7,13.4,7,10,8.1c-3.1,1-6.8,2.7-8.6,5.5c-1.5,2.3-1.3,5.7,1.1,7.3
				c0.3,0.2,0.7,0.1,0.9-0.1C8,17,14.3,15.9,19.9,17.7c-0.1-0.5-0.1-0.9-0.2-1.4c-2.8,1.7-6.1,2.2-9.1,3.4c-2.7,1.1-5,2.8-6.5,5.3
				c-3,5.2-1.5,11.8,3.3,15.4c0.4,0.3,1,0,1.1-0.4c0.9-4.3,2.2-9,5.6-12c1.6-1.5,3.7-2.5,5.8-2.8c1-0.1,2.1,0,3.1,0.3
				c0.6,0.2,1.4,0.5,1.4,1.2c0,0.8-0.8,1.3-1.3,1.6c-0.9,0.5-1.9,0.8-2.7,1.4c-0.9,0.6-1.7,1.3-2.4,2c-1.4,1.5-2.5,3.3-3.5,5.1
				c-2,3.8-3.7,8.3-2.1,12.6c1.5,4.2,5.5,6.9,9.3,8.8c0.6,0.3,1.3-0.2,1.1-0.8c-1.3-5.2-0.1-10.6,2.3-15.3c1.2-2.3,2.7-4.5,4.4-6.4
				c1.7-2,4.1-4.6,7-4c-0.2-0.3-0.3-0.6-0.5-0.9c-1.6,3.9-3.8,7.6-5.4,11.5c-1.6,4-2.4,8.3-2.1,12.6c0.7,7.6,4.9,14.6,11.8,18
				c0.4,0.2,1,0.1,1.1-0.4c0.3-1.4-0.1-2.6-0.6-3.9c-0.6-1.4-1.1-2.8-1.5-4.3c-0.8-2.9-1.3-5.9-1.4-9c-0.1-3,0.2-6.1,0.8-9.1
				c0.3-1.4,0.7-2.8,1.2-4.2c0.5-1.3,1-3.4,2.5-3.8c-0.3-0.1-0.6-0.2-0.8-0.3c1.1,1.8,0.3,4.1-0.1,6c-0.4,2.1-0.6,4.3-0.8,6.4
				c-0.4,4.3-0.3,8.7,0.1,13c0.3,3.3,0.6,6.9,3.3,9.2c2.2,1.9,5.3,2.6,8.1,1.7c0.4-0.1,0.6-0.5,0.5-0.9c-1.4-6.8-2.9-15.1,2.6-20.6
				c-0.4-0.1-0.8-0.2-1.3-0.3c1.2,5.8-0.6,11.6-0.3,17.4c0,0.9,0,2,0.6,2.8c0.8,1,2.1,0.8,3.2,0.9c1.4,0,2.7,0.1,4.1,0.1
				c1.3,0,2.6,0.2,3.8-0.3c2.2-0.8,2.7-3.5,3.1-5.5c0.5-2.5,0.6-5.1,0.1-7.6c-0.4-2.3-1.4-4.4-2.8-6.2c-0.6-0.8-1.4-1.6-2.2-2.2
				c-0.4-0.3-0.8-0.6-1.3-0.9c-0.2-0.1-1.4-0.6-1.5-0.7c-0.1-0.5,1.2,0.1,1.3,0.1c0.4,0.2,0.7,0.4,1,0.6c0.6,0.4,1.3,0.8,1.9,1.3
				c1.3,0.9,2.5,2,3.3,3.3c1.5,2.3,2,5.3,0.2,7.6c-0.5,0.7,0.6,1.5,1.2,0.9c6.5-6.7,6.1-17.8-1.2-23.8c-1.9-1.5-3.9-2.5-6.3-2.9
				c-2.6-0.5-5-1.6-7.4-2.8c-1-0.5-2.2-1-2.9-2c-0.3-0.4-0.5-1-0.3-1.5c0.3-0.8,0.9-0.7,1.6-0.8c2.7-0.1,5.3,0.1,7.9,0.9
				c5.1,1.6,9.6,5.9,9.9,11.5c0.1,0.8,1.2,1,1.5,0.2c1.4-4.8,1.7-10-0.4-14.6c-1.9-4.2-5.5-7.3-10.1-8.3c-2.6-0.6-5.4-0.7-8-0.5
				c-1.1,0.1-2.3,0.2-3.4,0.5c-1.4,0.3-2.7,1-4.1,1.3c-1.1,0.3-2.7,0.3-3.4-0.9c-0.8-1.4,1-2.8,2-3.4c2.1-1.4,4.7-2,7.2-2
				c3.2,0,6.3,0.9,9.2,2c2.7,1,5.3,2.5,7,4.8c0.3,0.5,1.3,0.5,1.4-0.2c0.5-3.4,0.1-7.1-1.9-9.9c-2.4-3.5-6.2-4-10.1-4.3
				C50.1,7,40.1,7.1,34.9,14.8c0.5,0.1,0.9,0.1,1.4,0.2c-0.9-4.6,3.4-8.3,7.7-8.5c2.4-0.1,4.5,0.7,6.7,1.6c1.4,0.6,2.8,0.2,2.7-1.5
				c-0.3-4.1-4.8-5.7-8.3-5.9c-4.6-0.3-9.2,0.8-13.3,2.9c-3.9,2-7.7,6-6,10.7c0.3,0.9,1.8,0.5,1.4-0.4c-1.5-4.2,2.3-7.5,5.7-9.2
				c3.8-1.9,8.3-2.8,12.6-2.4c1.9,0.2,4,0.7,5.3,2.2c0.3,0.4,1.6,2.3,0.7,2.4c-0.3,0-0.9-0.4-1.1-0.5c-0.4-0.2-0.9-0.4-1.3-0.5
				c-3.3-1.2-7.2-1.2-10.1,0.7c-3,1.9-4.8,5.4-4.1,8.9c0.1,0.7,1,0.7,1.4,0.2C40.8,8.8,49.7,8.5,57,9c3.7,0.2,7.8,0.2,10.1,3.5
				c1.8,2.5,2.3,5.9,1.8,8.9c0.5-0.1,0.9-0.1,1.4-0.2c-3-4.2-8.6-6.2-13.5-7.2c-4.7-0.9-10.9-0.5-14.1,3.7c-1.3,1.7-0.9,3.7,0.9,4.8
				c2.3,1.3,4.7,0,6.9-0.7c3-0.9,6.3-0.9,9.4-0.6c3,0.3,5.8,1.2,8,3.3c5,4.6,5.4,11.9,3.5,18c0.5,0.1,1,0.1,1.5,0.2
				c-0.3-4.7-3.1-8.8-7-11.2c-2.2-1.4-4.8-2.2-7.4-2.6c-1.3-0.2-2.7-0.3-4.1-0.3c-1,0-2.3-0.1-3.2,0.6c-1.4,1.2-0.9,3.4,0.3,4.6
				c0.7,0.7,1.7,1.2,2.6,1.7c1.3,0.7,2.6,1.4,3.9,1.9c2.6,1.1,5.6,1.1,8.1,2.6c2.2,1.4,4,3.4,5.2,5.7c2.9,5.6,1.8,12.5-2.6,17.1
				c0.4,0.3,0.8,0.6,1.2,0.9c2.9-3.8,0.7-8.9-2.5-11.7c-0.9-0.8-1.8-1.4-2.8-2.1c-0.9-0.6-2-1.5-3.2-1.6c-1.5-0.1-3,1.8-1.6,2.9
				c0.4,0.3,1.1,0.5,1.6,0.8c0.5,0.3,0.9,0.6,1.3,0.9c1,0.8,1.8,1.8,2.5,2.9c1.5,2.4,2.1,5.2,2,8c0,1.5-0.2,2.9-0.5,4.3
				c-0.3,1.4-0.7,3.2-2.2,3.7c-1.3,0.4-2.9,0.1-4.3,0.1c-0.6,0-1.3,0-1.9-0.1c-0.9,0-2,0.2-2.7-0.4c-1-0.9-0.6-3.7-0.5-5
				c0.1-1.6,0.3-3.3,0.4-4.9c0.3-3.2,0.5-6.4-0.2-9.6c-0.1-0.6-0.9-0.7-1.3-0.3c-5.9,5.9-4.5,14.7-3,22c0.2-0.3,0.3-0.6,0.5-0.9
				c-2.8,0.9-6.1-0.1-7.8-2.6c-1.1-1.5-1.3-3.4-1.5-5.1c-0.2-2-0.4-4-0.5-6c-0.2-4.1,0-8.2,0.6-12.3c0.4-2.9,1.9-6.7,0.3-9.5
				C42.7,37,42.3,36.9,42,37c-2.6,0.8-3.4,4.2-4,6.5c-0.9,3-1.4,6.2-1.5,9.4c-0.1,3.2,0.1,6.4,0.8,9.5c0.3,1.6,0.7,3.1,1.3,4.6
				c0.6,1.6,1.8,3.5,1.5,5.3c0.4-0.1,0.7-0.3,1.1-0.4C34.3,68.3,30.2,61.2,30,53.6c-0.1-4.2,0.9-8.1,2.5-11.9
				c1.6-3.5,3.5-6.9,5-10.5c0.1-0.4-0.2-0.9-0.5-0.9c-2.9-0.6-5.3,1.1-7.2,3.1c-2.1,2.2-4,4.7-5.5,7.3c-2.9,5.2-4.3,11.3-2.9,17.1
				c0.4-0.3,0.7-0.6,1.1-0.8c-4-2-8.4-4.9-9.1-9.7c-0.4-2.8,0.5-5.6,1.6-8.1c1-2.2,2.3-4.4,3.9-6.2c0.7-0.8,1.6-1.6,2.5-2.2
				c1-0.6,2.1-0.9,3.1-1.6c1.4-1.1,2-3.2,0.5-4.4c-1.4-1.2-3.7-1.3-5.4-1c-2,0.3-3.9,1.1-5.6,2.4c-4.2,3.2-5.9,8.5-7,13.5
				c0.4-0.1,0.7-0.3,1.1-0.4c-4.6-3.5-5.4-10.2-1.8-14.7c3.5-4.3,9.6-4.1,14.1-6.8c0.6-0.3,0.4-1.2-0.2-1.4
				c-6.1-2-12.9-0.6-17.8,3.5c0.3,0,0.6-0.1,0.9-0.1C0.8,18,2.2,14.5,4,12.9c2.2-2,5.3-3.3,8.2-3.9c2.7-0.6,5.3-0.3,7.9,0.8
				c2.2,0.9,4.6,2.4,5.8,4.5C26.3,15.2,27.6,14.4,27.1,13.6z"/>
		</g>
	</g>
	<g class="st1">
		<g>
			<path d="M25.3,14.2c1.4,3.8,4.4,6.5,7.4,9c3.7,3.1,7.1,6.4,10.3,9.9c6.6,6.9,12.7,14.5,16.7,23.3c2.2,4.9,3.8,10.1,4.4,15.5
				c0.1,1,1.6,1,1.5,0c-1-9.3-4.8-18.1-10-25.8c-5.4-8-12.1-15.3-19.3-21.7c-3.5-3.1-7.9-6-9.6-10.5C26.4,12.9,24.9,13.3,25.3,14.2
				L25.3,14.2z"/>
		</g>
	</g>
	<g class="st1">
		<g>
			<path d="M31.7,20.4c-0.9-1.5-2.9-1.2-4.4-1.4c-2.1-0.3-4.2-0.1-6.2,0.3c-4,0.9-7.9,2.9-11,5.6c-0.7,0.6,0.3,1.7,1.1,1.1
				c2.7-2.3,5.9-4.1,9.4-5c1.7-0.5,3.5-0.7,5.3-0.6c0.9,0,1.7,0.2,2.5,0.3c0.7,0,1.7-0.1,2.1,0.5C30.9,22,32.2,21.3,31.7,20.4
				L31.7,20.4z"/>
		</g>
	</g>
	<g class="st1">
		<g>
			<path d="M36.1,23.9c1.4-5.9,7.3-10,12.9-11.4c0.9-0.2,0.5-1.7-0.4-1.4c-6,1.6-12.4,6.1-13.9,12.5C34.4,24.4,35.8,24.8,36.1,23.9
				L36.1,23.9z"/>
		</g>
	</g>
	<g class="st1">
		<g>
			<path d="M37.5,25.7c-2.5,0.3-5,1.2-7.4,2.2c-1.6,0.7-3,1.7-4.3,2.9c-4.2,3.7-7.2,8.6-9,13.8c-0.3,0.9,1.1,1.3,1.4,0.4
				c1.7-4.9,4.5-9.5,8.4-13c1.2-1,2.4-2,3.9-2.6c2.1-1,4.6-1.9,6.9-2.1C38.5,27.1,38.5,25.6,37.5,25.7L37.5,25.7z"/>
		</g>
	</g>
	<g class="st1">
		<g>
			<path d="M44.6,32c0.4-2.1,2.5-4,4.3-5c1.3-0.8,2.8-1.3,4.3-1.6c4.2-0.8,8.8,0.5,12.8,1.6c0.9,0.3,1.3-1.2,0.4-1.4
				C62,24.4,57,23,52.4,24c-1.7,0.4-3.4,1.1-4.8,2c-1.9,1.3-4,3.2-4.4,5.5C43,32.6,44.4,33,44.6,32L44.6,32z"/>
		</g>
	</g>
	<g class="st1">
		<g>
			<path d="M48.9,39.1c-2.1,4.7-3.1,9.8-3.6,14.9c-0.4,4.2-0.6,8.6,0,12.8c0.1,0.9,1.6,1,1.5,0c-0.5-4-0.4-8.1,0-12.1
				c0.4-5,1.3-10.2,3.4-14.8C50.6,39,49.3,38.2,48.9,39.1L48.9,39.1z"/>
		</g>
	</g>
	<g class="st1">
		<g>
			<path d="M55.5,46.6c3.6-1.5,7.6-1.4,11.1,0.3c0.9,0.4,1.6-0.9,0.8-1.3c-3.8-1.9-8.3-2.1-12.2-0.5c-0.4,0.2-0.6,0.5-0.5,0.9
				C54.7,46.4,55.1,46.7,55.5,46.6L55.5,46.6z"/>
		</g>
	</g>
</g>
<g id="Layer_3" class="st0">
	<g class="st1">
		<path d="M57.4,36c-1.1,0.2-2.7-0.2-3.8-0.5c-2.8-0.7-6.9-2.9-9.1-4.6c-1.3-1-2.2-2.3-3-3.6c-2.3-3.7-3.7-8.9-3.4-13.1
			c-0.3,1.6-0.6,3-1.2,4.4c-1.8,3.9-3.7,7.8-6.9,10.9S22.3,35,17.4,35c2.1,0.1,4.2,0.3,6.1,1c2.1,0.8,3.8,2.1,5.2,3.6
			c5.9,6,8.2,14,9.5,21.8C38.4,57.1,40,53,41.6,49c1.1-2.8,2.3-5.5,5.1-7.7c2.4-1.9,7.5-4.6,10.8-5.3"/>
		<g>
			<path d="M57.4,34.8C55.1,35,52.5,34,50.5,33c-2.1-1-4.5-2.2-6.1-3.9c-3.5-3.7-5.2-9.8-5-14.8c0.1-1.4-2.2-1.7-2.5-0.3
				c-1.9,9.3-9.1,19.8-19.5,19.8c-1.6,0-1.6,2.4,0,2.5c3.2,0.2,6.1,0.6,8.7,2.7c2.3,1.8,4.2,4.2,5.7,6.7c2.9,4.9,4.3,10.5,5.3,16.1
				c0.2,1.5,2.4,1,2.5-0.3c0.2-3.2,1.1-6.2,2.2-9.2c1-2.6,1.9-5.3,3.5-7.6c1.4-2,3.5-3.3,5.7-4.5c2.2-1.2,4.5-2.3,6.9-2.9
				c1.6-0.4,0.9-2.8-0.7-2.4c-2.6,0.7-5.2,1.9-7.5,3.2c-2.4,1.3-4.7,2.9-6.3,5.1c-1.8,2.4-2.8,5.4-3.9,8.3
				c-1.2,3.3-2.2,6.6-2.4,10.1c0.8-0.1,1.6-0.2,2.5-0.3c-1.1-6.2-2.7-12.4-6.2-17.8c-1.7-2.6-3.8-5-6.3-6.9c-2.9-2-6.2-2.5-9.6-2.7
				c0,0.8,0,1.7,0,2.5c5.5,0,10.8-2.6,14.4-6.7c3.7-4.1,6.4-9.5,7.5-14.9c-0.8-0.1-1.6-0.2-2.5-0.3c-0.2,5.7,1.8,12.4,5.7,16.6
				c1.9,2,4.6,3.4,7,4.5c2.3,1.1,5.2,2.2,7.8,1.9C59,37.1,59,34.6,57.4,34.8L57.4,34.8z"/>
		</g>
	</g>
	<g class="st1">
		<g>
			<path d="M4.6,36.2c3.5,0.1,7,0.1,10.5,0.2c1.6,0,1.6-2.5,0-2.5c-3.5-0.1-7-0.1-10.5-0.2C2.9,33.7,2.9,36.2,4.6,36.2L4.6,36.2z"/>
		</g>
	</g>
	<g class="st1">
		<g>
			<path d="M5.8,34.6C7.2,23.9,14,14.2,23.5,9.2C25,8.4,23.7,6.3,22.3,7c-10.3,5.5-17.5,16-19,27.5C3.1,36.2,5.6,36.2,5.8,34.6
				L5.8,34.6z"/>
		</g>
	</g>
	<ellipse class="st5" cx="37.4" cy="37.8" rx="36.5" ry="36.3"/>
	<g class="st1">
		<g>
			<path d="M37.3,63.6c0.1,3.4,0.3,6.7,0.4,10.1c0,0.7,0.6,1.3,1.3,1.3c0.7,0,1.3-0.6,1.3-1.3c-0.1-3.4-0.3-6.7-0.4-10.1
				c0-0.7-0.6-1.3-1.3-1.3C37.9,62.4,37.2,63,37.3,63.6L37.3,63.6z"/>
		</g>
	</g>
	<g class="st1">
		<g>
			<path d="M61.6,37.1c0.8,0,1.5,0,2.3,0.1c-0.1,0-0.2,0-0.3,0c0.1,0,0.3,0,0.4,0.1c0.3,0.1,0.7,0.1,1-0.1c0.3-0.2,0.5-0.4,0.6-0.7
				c0.1-0.3,0.1-0.7-0.1-1c-0.2-0.3-0.4-0.5-0.7-0.6c-1-0.2-2-0.3-3-0.2c-0.3,0-0.6,0.1-0.9,0.4c-0.2,0.2-0.4,0.6-0.4,0.9
				c0,0.3,0.1,0.7,0.4,0.9C61,36.9,61.3,37.1,61.6,37.1L61.6,37.1z"/>
		</g>
	</g>
	<g class="st1">
		<g>
			<path d="M67.9,37c1.8,0,3.5,0.1,5.3,0.1c0.7,0,1.3-0.6,1.3-1.3c0-0.7-0.5-1.2-1.3-1.3c-1.8,0-3.5-0.1-5.3-0.1
				c-0.7,0-1.3,0.6-1.3,1.3C66.7,36.4,67.2,36.9,67.9,37L67.9,37z"/>
		</g>
	</g>
	<g class="st1">
		<g>
			<path d="M36.6,3.7c0,2.2,0,4.5-0.1,6.7c0,0.7,0.6,1.3,1.3,1.3c0.7,0,1.2-0.5,1.3-1.3c0.1-2.2,0.1-4.5,0.1-6.7
				c0-0.7-0.6-1.3-1.3-1.3C37.2,2.5,36.6,3,36.6,3.7L36.6,3.7z"/>
		</g>
	</g>
	<g class="st1">
		<g>
			<path d="M26.5,44.3c-1.1,1.3-2.2,2.6-3.5,3.7c-0.6,0.6-1.2,1.1-1.9,1.6c-0.3,0.2-0.5,0.4-0.8,0.6c-0.4,0.3-0.7,0.5-1.1,0.8
				c-0.5,0.4-0.8,1.1-0.4,1.7c0.3,0.5,1.1,0.8,1.7,0.4c2.9-2,5.5-4.4,7.8-7.1c0.4-0.5,0.5-1.3,0-1.8C27.8,43.9,27,43.8,26.5,44.3
				L26.5,44.3z"/>
		</g>
	</g>
	<g class="st1">
		<g>
			<path d="M14.7,55.8c-0.3,0.3-0.5,0.6-0.8,0.9c-0.1,0.1-0.2,0.2-0.3,0.4c-0.1,0.1-0.1,0.3-0.1,0.5c0,0.2,0,0.3,0.1,0.5
				c0.1,0.2,0.1,0.3,0.3,0.4c0.1,0.1,0.2,0.1,0.3,0.2c0.2,0.1,0.4,0.2,0.6,0.2c0.1,0,0.2,0,0.3,0c0.2-0.1,0.4-0.2,0.6-0.3
				c0.3-0.3,0.5-0.6,0.8-0.9c0.1-0.1,0.2-0.2,0.3-0.4c0.1-0.1,0.1-0.3,0.1-0.5c0-0.2,0-0.3-0.1-0.5c-0.1-0.2-0.1-0.3-0.3-0.4
				c-0.1-0.1-0.2-0.1-0.3-0.2c-0.2-0.1-0.4-0.2-0.6-0.2c-0.1,0-0.2,0-0.3,0C15,55.5,14.8,55.6,14.7,55.8L14.7,55.8z"/>
		</g>
	</g>
	<g class="st1">
		<g>
			<path d="M47.3,28.7c0.7-0.5,1.4-1.1,2-1.7c0.2-0.2,0.4-0.6,0.4-0.9c0-0.2,0-0.3-0.1-0.5c-0.1-0.2-0.1-0.3-0.3-0.4
				c-0.2-0.2-0.6-0.4-0.9-0.4c-0.3,0-0.7,0.1-0.9,0.4c-0.4,0.4-0.8,0.8-1.3,1.2c0.1-0.1,0.2-0.1,0.3-0.2c-0.1,0.1-0.3,0.2-0.4,0.3
				c-0.1,0.1-0.3,0.2-0.4,0.3c-0.1,0.1-0.2,0.3-0.2,0.4c-0.1,0.2-0.1,0.3,0,0.5c0,0.2,0.1,0.3,0.1,0.5c0.2,0.3,0.4,0.5,0.7,0.6
				C46.6,28.9,47,28.9,47.3,28.7L47.3,28.7z"/>
		</g>
	</g>
	<g class="st1">
		<g>
			<path d="M51.4,25.2c2.7-2.5,5.5-4.9,8.3-7.1c0.5-0.4,0.4-1.3,0-1.8c-0.5-0.5-1.2-0.4-1.8,0c-2.9,2.3-5.7,4.6-8.3,7.1
				c-0.5,0.5-0.5,1.3,0,1.8C50.1,25.7,50.9,25.7,51.4,25.2L51.4,25.2z"/>
		</g>
	</g>
	<g class="st1">
		<g>
			<path d="M46.6,47.5c3.1,3.3,6.1,6.7,9.2,10c1.1,1.2,2.9-0.6,1.8-1.8c-3.1-3.3-6.1-6.7-9.2-10C47.3,44.6,45.5,46.3,46.6,47.5
				L46.6,47.5z"/>
		</g>
	</g>
	<g class="st1">
		<g>
			<path d="M58.6,60.6c0.2,0.3,0.4,0.6,0.5,0.9c0.1,0.1,0.2,0.3,0.3,0.4c0.1,0.1,0.3,0.2,0.4,0.2c0.2,0.1,0.3,0.1,0.5,0
				c0.2,0,0.3-0.1,0.5-0.1c0.1-0.1,0.2-0.1,0.3-0.2c0.2-0.2,0.3-0.3,0.3-0.6c0-0.1,0-0.2,0-0.3c0-0.2-0.1-0.4-0.2-0.6
				c-0.2-0.3-0.4-0.6-0.5-0.9c-0.1-0.1-0.2-0.3-0.3-0.4c-0.1-0.1-0.3-0.2-0.4-0.2c-0.2-0.1-0.3-0.1-0.5,0c-0.2,0-0.3,0.1-0.5,0.1
				c-0.1,0.1-0.2,0.1-0.3,0.2c-0.2,0.2-0.3,0.3-0.3,0.6c0,0.1,0,0.2,0,0.3C58.4,60.2,58.4,60.4,58.6,60.6L58.6,60.6z"/>
		</g>
	</g>
	<g class="st1">
		<g>
			<path d="M23.5,24.1C23.5,24.1,23.5,24.1,23.5,24.1c-0.1,0-0.1-0.1-0.2-0.2c0.6,0.5,1.2,1,1.7,1.7c-0.1-0.1-0.1-0.2-0.2-0.3
				c0,0,0,0,0.1,0.1c0.1,0.1,0.2,0.3,0.3,0.4c0.1,0.1,0.3,0.2,0.4,0.2c0.2,0.1,0.3,0.1,0.5,0c0.2,0,0.3-0.1,0.5-0.1
				c0.3-0.2,0.5-0.4,0.6-0.7c0-0.1,0-0.2,0-0.3c0-0.2-0.1-0.4-0.2-0.6c-0.3-0.4-0.6-0.8-1-1.2c-0.4-0.4-0.8-0.7-1.2-1
				c-0.1-0.1-0.3-0.1-0.5-0.1c-0.2,0-0.3,0-0.5,0c-0.3,0.1-0.6,0.3-0.7,0.6c-0.2,0.3-0.2,0.6-0.1,1c0,0.1,0.1,0.2,0.1,0.3
				C23.1,23.9,23.3,24,23.5,24.1L23.5,24.1z"/>
		</g>
	</g>
</g>
<g id="Layer_4" class="st0">
	<g class="st1">
		<g>
			<path class="st6" d="M38.9,39.4c0.8,2,2.1,7,2.9,9c1.5,3.7,3,7.5,5.3,10.8c2.3,3.3,5.4,6.2,9.3,7.5c3.9,1.3,8.4,0.8,11.9-1.2
				c2.2-1.3,4.1-3.4,4.2-5.9c0.1-2.2-1.2-4.2-2.8-5.7C61.5,45.9,47.4,46.9,38.9,39.4"/>
			<g>
				<path d="M38.2,39.6c1,2.5,1.6,5.1,2.4,7.6c1.1,3.3,2.5,6.5,4.1,9.5c3.2,5.9,8.4,11.1,15.5,11.4c5.5,0.3,15-3.6,12.7-10.7
					c-1-2.9-3.6-5.1-6.1-6.7c-2.5-1.6-5.3-2.7-8.1-3.6c-6.6-2.2-13.9-3.5-19.3-8.1c-0.7-0.6-1.8,0.4-1.1,1.1
					c4.1,3.6,9.3,5.3,14.5,6.8c5.3,1.6,10.9,3,15.2,6.7c2.5,2.1,4.8,5.3,2.8,8.5c-1.8,2.9-5.4,4.3-8.7,4.6c-6.9,0.6-12.4-4-15.7-9.7
					c-1.8-3.1-3.3-6.5-4.4-9.8c-0.9-2.6-1.5-5.3-2.5-7.9C39.3,38.3,37.8,38.7,38.2,39.6L38.2,39.6z"/>
			</g>
		</g>
		<g>
			<path class="st6" d="M37.6,38.9c2-0.8,7.1-2.2,9.1-3.1c3.8-1.6,7.5-3.2,10.9-5.5c3.3-2.3,6.2-5.5,7.4-9.3
				c1.2-3.8,0.6-8.2-1.6-11.6c-1.4-2.1-3.6-3.9-6.1-3.9c-2.2,0-4.2,1.3-5.7,2.9C43.6,16.6,45,30.4,37.6,38.9"/>
			<g>
				<path d="M37.8,39.6c2.5-1,5.1-1.7,7.7-2.5c3.2-1.1,6.4-2.6,9.4-4.2c5.8-3.2,11.2-8.4,11.4-15.4C66.5,12,62.4,3.2,55.5,5
					c-3,0.8-5.2,3.3-6.9,5.7c-1.7,2.5-2.8,5.3-3.7,8.1c-2.2,6.6-3.2,14-7.9,19.5c-0.6,0.7,0.4,1.8,1.1,1.1c3.6-4.2,5.2-9.5,6.7-14.7
					c1.5-5.2,2.9-10.8,6.5-15c2.2-2.5,5.5-4.6,8.7-2.6c2.8,1.7,4.3,5.2,4.7,8.3c0.8,6.8-4,12.1-9.5,15.4c-3.1,1.8-6.5,3.4-9.9,4.6
					c-2.6,0.9-5.4,1.6-8,2.6C36.5,38.5,36.9,40,37.8,39.6L37.8,39.6z"/>
			</g>
		</g>
		<g>
			<path class="st6" d="M35.1,38.9c-0.9-2-2.2-7-3.1-8.9c-1.6-3.7-3.2-7.4-5.6-10.6s-5.6-6.1-9.5-7.3c-3.9-1.2-8.4-0.6-11.8,1.5
				c-2.1,1.3-4,3.5-4,6c0,2.2,1.3,4.1,2.9,5.6C12.2,33,26.3,31.6,35.1,38.9"/>
			<g>
				<path d="M35.7,38.5c-1-2.5-1.7-5.1-2.6-7.6c-1.2-3.2-2.7-6.4-4.4-9.3c-3.4-5.8-8.8-10.8-15.9-10.9c-5.4-0.1-14.6,4-12.3,10.9
					c1,2.9,3.5,5,6,6.5c2.5,1.6,5.4,2.7,8.2,3.5c6.7,2.1,14.1,3.1,19.7,7.7c0.7,0.6,1.8-0.4,1.1-1.1c-4.3-3.5-9.6-5.1-14.8-6.5
					C15.4,30.4,9.6,29,5.3,25.4c-2.5-2.1-4.7-5.3-2.6-8.5c1.8-2.8,5.4-4.2,8.5-4.6c7-0.7,12.6,4,16,9.7c1.8,3,3.4,6.3,4.6,9.6
					c0.9,2.6,1.6,5.2,2.6,7.7C34.8,40.2,36.1,39.4,35.7,38.5L35.7,38.5z"/>
			</g>
		</g>
		<g>
			<path class="st6" d="M35.1,39.4c-1.9,1-6.9,2.7-8.9,3.7c-3.6,1.8-7.3,3.7-10.4,6.2S10,55.1,9,59c-0.9,3.9,0,8.2,2.4,11.5
				c1.5,2,3.8,3.7,6.4,3.5c2.2-0.1,4.1-1.6,5.5-3.3C30.6,62.1,28.2,48.4,35.1,39.4"/>
			<g>
				<path d="M34.7,38.7c-2.4,1.2-5.1,2-7.6,3.1c-3.1,1.3-6.2,3-9,4.8c-5.5,3.6-10.5,9.2-10.2,16.2c0.3,5.5,4.9,13.8,11.6,11.6
					c2.9-1,5-3.6,6.5-6.2c1.5-2.6,2.4-5.4,3.1-8.3c1.7-6.8,2.3-14.3,6.6-20.1c0.6-0.8-0.7-1.5-1.3-0.8c-3.3,4.5-4.5,10.1-5.7,15.5
					c-1.1,5.5-2.3,11.4-6,15.7c-2.2,2.6-5.4,4.1-8.5,2c-2.7-1.8-4.3-5.1-4.7-8.2c-1-6.8,3.8-12.4,9.1-16c2.9-1.9,6.1-3.7,9.4-5
					c2.5-1,5-1.8,7.4-3C36.3,39.6,35.5,38.3,34.7,38.7L34.7,38.7z"/>
			</g>
		</g>
	</g>
	<g class="st1">
		<path class="st6" d="M27.8,34c-4.6-4-7.8-9.6-8.1-15.5s2.5-12.2,7.7-15.4s12.6-2.8,16.9,1.5c3.5,3.4,4.6,8.7,3.9,13.6
			s-3,9.3-5.4,13.5c3.8-4.9,10.4-7.5,16.6-6.6c6.2,0.9,11.7,5.2,14,10.9c1.3,3.2,1.4,7.2-0.8,9.8c-1.4,1.7-3.5,2.6-5.6,3.2
			c-3.6,1.1-7.5,1.7-11.1,0.9s-7.1-3.1-8.6-6.5c3.5,5.6,4.9,12.4,3.7,18.9c-0.6,3.7-2.4,7.6-5.8,9.3c-3.9,1.9-8.8,0.3-11.8-2.7
			c-3-3.1-4.3-7.3-5.1-11.5c-1-5.1-1-11,2.8-14.6c-5.5,4.3-12.6,6.7-19.7,6.6c-3.6-0.1-7.8-1.1-9.4-4.3c-1.3-2.6-0.6-5.8,0.9-8.2
			c2.4-4,6.9-7,11.6-7.4S25.1,30.2,27.8,34z"/>
		<g>
			<path d="M28.4,33.5c-4-3.5-7-8.2-7.8-13.6c-0.7-5,0.9-10.3,4.4-14c3.4-3.5,8.6-4.9,13.3-3.7c5.2,1.3,8.4,5.6,9.1,10.8
				c0.9,6.6-2.2,12.8-5.4,18.3c-0.4,0.7,0.6,1.6,1.2,0.9c6-7.5,17.2-8.7,24.5-2.5c3.4,2.8,6,7.2,5.6,11.8c-0.5,5.6-6.8,7.3-11.5,7.9
				c-5.4,0.7-11.7-1-14.1-6.4c-0.4,0.3-0.9,0.5-1.3,0.8c2.5,4.1,4,8.9,4,13.7c0,4.2-0.7,9.2-3.9,12.2c-3.5,3.2-8.7,2.2-12.1-0.7
				c-3.5-3-4.9-7.7-5.7-12.1c-0.8-4.6-0.9-10,2.6-13.5c0.7-0.7-0.3-1.6-1.1-1.1c-3.7,2.9-8.2,4.9-12.8,5.8c-4,0.8-9,1.2-12.6-0.9
				C0.5,44.7,1.6,39.4,4.2,36c2.6-3.4,6.7-5.6,11-5.9c4.2-0.2,9.4,0.7,12,4.3c0.6,0.8,1.9,0,1.3-0.8c-2.7-3.6-7.4-5-11.8-5.1
				c-4.8-0.1-9.5,1.7-12.8,5.3C1,37.1-1.3,42.5,1.7,46.4c2.9,3.7,8.5,3.9,12.8,3.5c6.1-0.6,11.9-2.9,16.8-6.7
				c-0.4-0.4-0.7-0.7-1.1-1.1c-3.5,3.4-3.9,8.4-3.3,13c0.6,4.9,2.1,10.3,5.6,14c3.1,3.3,8.3,5.1,12.6,3.1c4.4-2.1,6.1-7.2,6.6-11.7
				c0.7-6.1-0.8-12.4-4.1-17.6c-0.5-0.8-1.7-0.1-1.3,0.8C48.6,48.6,54,51,59.2,51c3.1,0,6.3-0.7,9.2-1.8c2.3-0.9,4.5-2.3,5.6-4.6
				c2.2-4.6,0-10.2-3-13.8c-3.3-3.9-8.2-6.4-13.2-6.7c-5.9-0.3-11.9,2.4-15.6,7c0.4,0.3,0.8,0.6,1.2,0.9c3.1-5.5,6.2-11.5,5.7-18
				c-0.4-5.4-3.2-10.5-8.3-12.6c-4.9-2-10.8-1.3-15,1.9c-4.3,3.3-6.8,8.7-6.8,14.1c0,6.7,3.5,12.9,8.4,17.2
				C28,35.2,29.1,34.1,28.4,33.5z"/>
		</g>
	</g>
	<g class="st1">
		<g>
			<path d="M39.6,31c-3.2-0.4-7.2,0.5-9.3,3.1c-1.3,1.5-1.1,3.3-0.4,5.1c0.6,1.5,1.3,2.9,2.4,4c1.2,1.2,2.8,1.8,4.5,2
				c1.9,0.2,4,0.2,5.7-0.5c2.8-1.1,4.1-4.3,3.3-7.1c-0.5-1.6-1.5-3.1-2.6-4.3c-0.6-0.6-1.2-1.2-1.9-1.7c-0.6-0.5-1.1-0.8-1.9-0.6
				c-0.9,0.2-0.5,1.7,0.4,1.4c0.1,0,0.2-0.1,0.4-0.1c-0.2,0-0.4-0.1-0.6-0.1c2,1.1,3.9,3.2,4.7,5.3c0.8,2.1,0.1,4.6-2,5.6
				c-1.3,0.7-2.9,0.6-4.4,0.6c-1.5-0.1-2.9-0.3-4.1-1.3c-1-0.8-1.6-1.9-2.1-3c-0.6-1.3-1.3-3-0.2-4.3c1.8-2.3,5.5-3,8.2-2.6
				C40.5,32.6,40.5,31.1,39.6,31z"/>
		</g>
	</g>
	<g class="st1">
		<g>
			<path d="M36.9,31.2c1-6.9-0.5-13.6-2.1-20.3c-0.2-0.9-1.7-0.5-1.4,0.4c1.6,6.3,3.2,12.9,2.1,19.5C35.4,31.7,36.8,32.1,36.9,31.2
				L36.9,31.2z"/>
		</g>
	</g>
	<g class="st1">
		<g>
			<path d="M44.6,38.4c2.7,1.6,6.1,1.4,9.1,1c3.3-0.5,6.6-1.5,9.6-3.1c0.9-0.4,0.1-1.7-0.8-1.3c-2.7,1.4-5.6,2.3-8.6,2.8
				c-2.7,0.4-6.1,0.8-8.6-0.7C44.5,36.6,43.8,37.9,44.6,38.4L44.6,38.4z"/>
		</g>
	</g>
	<g class="st1">
		<g>
			<path d="M38.5,45.6c1.8,4.8,2.1,10.1,0.8,15c-0.2,0.9,1.2,1.3,1.4,0.4c1.3-5.2,1-10.8-0.8-15.8C39.7,44.3,38.2,44.7,38.5,45.6
				L38.5,45.6z"/>
		</g>
	</g>
	<g class="st1">
		<g>
			<path d="M29.4,37.7c-4.4,0.7-8.7,1-13.1,1.1c-1,0-1,1.5,0,1.5c4.5-0.1,9.1-0.4,13.5-1.1C30.7,39,30.3,37.5,29.4,37.7L29.4,37.7z"
				/>
		</g>
	</g>
	<g class="st1">
		<g>
			<path d="M26.9,46.2c-4,4.6-7,10.1-8.7,16c-0.3,0.9,1.2,1.3,1.4,0.4c1.6-5.6,4.5-10.9,8.3-15.3C28.5,46.5,27.5,45.4,26.9,46.2
				L26.9,46.2z"/>
		</g>
	</g>
	<g class="st1">
		<g>
			<path d="M22.5,28.3c-2.2-1.9-4.3-4-6.6-5.7c-2.3-1.7-5-2.7-7.6-3.7c-0.9-0.3-1.3,1.1-0.4,1.4c2.5,0.9,5.1,1.9,7.2,3.5
				c2.2,1.6,4.2,3.6,6.3,5.5C22.2,30,23.2,29,22.5,28.3L22.5,28.3z"/>
		</g>
	</g>
	<g class="st1">
		<g>
			<path d="M45.1,29c4.5-3.7,8.4-8.1,11.5-13c0.5-0.8-0.8-1.6-1.3-0.8c-3.1,4.8-6.9,9.1-11.3,12.7C43.3,28.5,44.4,29.6,45.1,29
				L45.1,29z"/>
		</g>
	</g>
	<g class="st1">
		<g>
			<path d="M49.7,48.5c2.4,4.8,6.4,8.8,11.3,11.2c0.9,0.4,1.6-0.9,0.8-1.3c-4.7-2.3-8.5-6-10.8-10.6C50.5,46.9,49.3,47.6,49.7,48.5
				L49.7,48.5z"/>
		</g>
	</g>
	<g class="st1">
		<g>
			<path d="M34,37c1,0,1-1.5,0-1.5C33,35.5,33,37,34,37L34,37z"/>
		</g>
	</g>
	<g class="st1">
		<g>
			<path d="M38.1,35.5c1,0,1-1.5,0-1.5C37.1,34,37.1,35.5,38.1,35.5L38.1,35.5z"/>
		</g>
	</g>
	<g class="st1">
		<g>
			<path d="M37.5,39.1c1,0,1-1.5,0-1.5C36.5,37.6,36.5,39.1,37.5,39.1L37.5,39.1z"/>
		</g>
	</g>
	<g class="st1">
		<g>
			<path d="M35.9,41.4c1,0,1-1.5,0-1.5C35,39.9,35,41.4,35.9,41.4L35.9,41.4z"/>
		</g>
	</g>
	<g class="st1">
		<g>
			<path d="M40.8,42c1,0,1-1.5,0-1.5C39.9,40.5,39.9,42,40.8,42L40.8,42z"/>
		</g>
	</g>
	<g class="st1">
		<g>
			<path d="M41.2,38.4c1,0,1-1.5,0-1.5C40.3,36.9,40.3,38.4,41.2,38.4L41.2,38.4z"/>
		</g>
	</g>
</g>
<g id="Layer_5" class="st0">
	<g class="st1">
		<path class="st7" d="M0.9,45.6c2.4-4,4.8-8.1,7.2-12.1c0.5-0.8,1.2-1.8,2.1-1.8c0.9,0,1.6,0.9,2.3,1.6c0.6,0.7,1.7,1.3,2.5,0.8
			c0.2-0.2,0.4-0.4,0.5-0.6c4-6.2,7.6-12.6,10.9-19.3c1.3,1,2.6,1.9,3.8,2.9c4.1-5,8.2-10.1,12.4-15.1c4.3,4.1,7.8,9,10.4,14.4
			c0.5,1.1,1,2.2,2,2.8c0.9,0.6,2.4,0.5,2.9-0.6c2.9,3,4.6,7,7.1,10.4c1.3,1.9,3.5,5.3,5.1,7c1.4,1.5,3.7,3.5,4.1,4.7
			c0.2,0.5-2.3,3.4-2.7,4.1c-2.7,4.5-5.7,5.2-8.3,10.1c-1.6,3-3.1,6-4.7,8.9c-1.1-0.9-1.3-2.9-2.6-3c-0.9-0.1-1.6,0.9-2,1.8
			c-2.1,3.8-4.5,7.3-7.2,10.6c-0.4,0.4-0.9,0.9-1.3,0.7c-0.2-0.1-0.4-0.4-0.6-0.6c-1.6-2.6-3.2-5.3-4.9-7.9
			c-2.3,2.5-4.7,4.8-7.2,7.1c-4.5-7-10.3-13.1-17-17.8c-0.6-0.4-1.2-0.8-1.9-0.9c-1.2-0.1-2.2,1-3.2,1.8c-1,0.8-2.4,1.5-3.4,0.7
			c-0.4-0.3-0.6-0.9-0.9-1.4C4.9,51.6,3.4,47.6,0.9,45.6z"/>
		<g>
			<path d="M1.5,45.9c2.1-3.6,4.3-7.2,6.4-10.9c0.4-0.7,0.8-1.6,1.4-2.2c1.1-1,1.8,0.1,2.5,0.8c0.8,0.8,2,1.6,3.2,1
				c0.7-0.4,1.1-1.2,1.4-1.8c0.5-0.8,1-1.6,1.5-2.4c1.1-1.7,2.1-3.5,3.1-5.3c2-3.6,4-7.2,5.8-10.8c-0.3,0.1-0.7,0.2-1,0.3
				c1.3,1,2.6,1.9,3.8,2.9c0.2,0.2,0.7,0.1,0.9-0.1c4.1-5,8.2-10.1,12.4-15.1c-0.4,0-0.7,0-1.1,0c3.6,3.5,6.7,7.5,9.1,12
				c0.9,1.7,1.6,4.3,3.4,5.4c1.3,0.8,3.1,0.6,3.9-0.8c-0.4,0.1-0.8,0.1-1.2,0.2c2.8,3.1,4.6,6.9,6.9,10.3c1.9,2.6,3.5,5.5,5.8,7.8
				c0.6,0.6,1.2,1.2,1.8,1.8c0.3,0.3,1.5,1.3,1.5,1.6c0,0.3-0.6,1-0.8,1.3c-0.4,0.6-0.8,1.1-1.2,1.6c-1,1.3-1.8,2.6-2.9,3.8
				c-1.1,1.2-2.3,2.2-3.4,3.4c-1.5,1.7-2.6,3.7-3.6,5.7c-1.2,2.3-2.4,4.7-3.7,7c0.4-0.1,0.8-0.1,1.2-0.2c-1.1-1.1-1.6-3.7-3.7-3.2
				c-0.9,0.2-1.5,0.9-1.9,1.7c-0.8,1.2-1.4,2.6-2.2,3.8c-0.8,1.2-1.6,2.4-2.4,3.6c-0.5,0.7-1,1.4-1.5,2c-0.3,0.4-0.9,1.5-1.4,1.7
				c-0.7,0.3-2.4-3.2-2.8-3.8c-0.9-1.4-1.7-2.8-2.6-4.2c-0.2-0.4-0.8-0.5-1.2-0.2c-2.3,2.5-4.7,4.8-7.2,7.1c0.4,0.1,0.8,0.1,1.2,0.2
				c-4.4-6.9-10.1-12.9-16.8-17.7c-1.4-1-2.9-1.8-4.6-0.9c-0.9,0.5-1.6,1.4-2.4,1.9c-0.4,0.3-0.9,0.5-1.4,0.5
				c-0.7-0.1-1-0.9-1.2-1.4C5.4,51,4.2,47.4,1.4,45c-0.7-0.6-1.8,0.4-1.1,1.1c2.8,2.4,3.8,6,5.3,9.2c0.7,1.5,2,2.2,3.6,1.6
				c1.8-0.7,3.2-3.4,5.3-2.2c3.5,2,6.6,5.1,9.4,7.9c2.9,3,5.6,6.4,7.9,9.9c0.3,0.4,0.8,0.5,1.2,0.2c2.5-2.2,4.9-4.6,7.2-7.1
				c-0.4-0.1-0.8-0.1-1.2-0.2c0.9,1.4,1.7,2.8,2.6,4.2c0.8,1.3,1.5,2.8,2.5,4c1.7,2.2,3.7-1,4.6-2.3c1.8-2.3,3.4-4.7,4.8-7.2
				c0.4-0.7,1.6-3.6,2.6-2.4c0.7,0.7,0.9,1.8,1.7,2.5c0.3,0.3,0.9,0.3,1.2-0.2c1.1-2.2,2.3-4.4,3.4-6.6c1.1-2,2.1-4.1,3.6-5.8
				c1.1-1.3,2.5-2.4,3.6-3.6c1.1-1.2,1.9-2.6,2.8-3.8c0.7-0.9,1.8-2,2.2-3.1c0.4-1.1-0.9-2.2-1.5-3c-1.3-1.4-2.7-2.6-3.8-4.1
				c-1.1-1.5-2.1-3-3.1-4.5c-2.6-3.8-4.7-8.1-7.9-11.6c-0.3-0.3-1-0.3-1.2,0.2c-0.5,1-1.7,0.6-2.3-0.1c-0.7-0.7-1-1.7-1.5-2.6
				c-0.9-1.8-1.9-3.5-3-5.2c-2.1-3.3-4.6-6.3-7.4-9c-0.3-0.3-0.8-0.3-1.1,0c-4.1,5-8.2,10.1-12.4,15.1c0.3,0,0.6-0.1,0.9-0.1
				c-1.3-1-2.6-1.9-3.8-2.9c-0.3-0.2-0.9-0.1-1,0.3c-1.8,3.7-3.7,7.3-5.8,10.8c-1,1.8-2.1,3.5-3.1,5.3c-0.5,0.8-1,1.6-1.5,2.4
				c-0.3,0.5-0.8,1.2-1.6,1.1c-0.4-0.1-0.8-0.7-1.1-1c-0.8-0.9-1.9-1.7-3.2-1.2c-1.3,0.5-2,2.1-2.7,3.3c-2.1,3.6-4.3,7.2-6.4,10.9
				C-0.3,46,1,46.8,1.5,45.9z"/>
		</g>
	</g>
	<g class="st1">
		<g>
			<path d="M2.9,46c2.3,0,4.5-0.5,6.5-1.8c1.8-1.2,3.6-3.9,6-3.6c1,0.1,1.8,0.4,2.8,0c1.1-0.5,2.1-1.4,3.1-2.1
				c1.1-0.8,2.2-1.6,3.3-2.4c1.3-1,2.5-2,4.3-1.5c1.3,0.4,2.6,1.3,3.7,2c1.3,0.7,2.6,1.5,3.8,2.2c1.3,0.7,2.6,1.5,3.8,2.2
				c1,0.6,2,1.2,3.2,1.2c1-0.1,1.9-0.7,2.7-1.2c1.3-0.8,2.6-1.6,3.9-2.4c0.7-0.4,1.4-0.8,2.2-0.6c0.7,0.1,1.4,0.5,2.1,0.7
				c1.4,0.5,2.8,0.9,4.2,1.3c1.4,0.4,3,1,4.4,0.9c1.4-0.1,2.5-0.4,3.9,0c2.2,0.7,4.4,1.9,6.8,1.1c0.9-0.3,0.5-1.8-0.4-1.4
				c-2.2,0.8-4.4-0.7-6.5-1.3c-0.8-0.2-1.7-0.3-2.5-0.2c-0.8,0.1-1.5,0.3-2.3,0.2c-0.8-0.1-1.7-0.4-2.5-0.6c-1.3-0.4-2.6-0.8-4-1.2
				c-1.2-0.4-2.6-1.1-3.9-1c-1.1,0.1-2,0.7-2.9,1.3c-1.2,0.8-2.5,1.5-3.7,2.3c-0.7,0.4-1.3,0.9-2.2,0.7c-0.7-0.1-1.3-0.6-1.8-0.9
				c-1.3-0.7-2.6-1.5-3.8-2.2c-2.4-1.4-4.8-3.1-7.3-4.2c-2.5-1-4.2,0.1-6.3,1.5c-1.1,0.8-2.2,1.6-3.3,2.4c-0.9,0.7-2.3,2.1-3.6,2.1
				c-1.3,0-2.3-0.5-3.6,0.1c-1,0.4-1.9,1.2-2.7,1.9c-2.2,2-4.6,3.2-7.7,3.1C2,44.5,2,46,2.9,46L2.9,46z"/>
		</g>
	</g>
	<g class="st1">
		<g>
			<path d="M6.8,49.4c0.3,0.9,0.6,1.9,0.9,2.8c0.1,0.4,0.5,0.7,0.9,0.5c0.4-0.1,0.7-0.5,0.5-0.9C8.9,50.9,8.6,50,8.3,49
				c-0.1-0.4-0.5-0.7-0.9-0.5C7,48.6,6.7,49,6.8,49.4L6.8,49.4z"/>
		</g>
	</g>
	<g class="st1">
		<g>
			<path d="M19.2,52.7c5.2,4.2,9.8,8.9,14.2,13.8c0.6,0.7,1.7-0.3,1.1-1.1c-4.4-5-9-9.7-14.2-13.8C19.5,51.1,18.4,52.1,19.2,52.7
				L19.2,52.7z"/>
		</g>
	</g>
	<g class="st1">
		<g>
			<path d="M36.3,63.2c0.3-0.4,0.6-0.8,0.9-1.2c0.1-0.1,0.1-0.2,0.1-0.3c0-0.1,0-0.2,0-0.3c0-0.2-0.2-0.4-0.3-0.4
				c-0.2-0.1-0.4-0.1-0.6-0.1c-0.1,0-0.1,0.1-0.2,0.1c-0.1,0.1-0.2,0.2-0.3,0.3c-0.3,0.4-0.6,0.8-0.9,1.2c-0.1,0.1-0.1,0.2-0.1,0.3
				c0,0.1,0,0.2,0,0.3c0,0.2,0.2,0.4,0.3,0.4c0.2,0.1,0.4,0.1,0.6,0.1c0.1,0,0.1-0.1,0.2-0.1C36.2,63.4,36.2,63.3,36.3,63.2
				L36.3,63.2z"/>
		</g>
	</g>
	<g class="st1">
		<g>
			<path d="M38.6,51.6c1.2,5.5,2.9,10.8,5.3,15.8c0.4,0.9,1.7,0.1,1.3-0.8c-2.3-4.9-4-10.1-5.1-15.5C39.9,50.2,38.4,50.6,38.6,51.6
				L38.6,51.6z"/>
		</g>
	</g>
	<g class="st1">
		<g>
			<path d="M48.9,64.6c0.3-0.8,0.7-1.6,1-2.4C50,62,50,61.9,50,61.7c0-0.2-0.2-0.4-0.3-0.4c-0.2-0.1-0.4-0.1-0.6-0.1
				c-0.2,0.1-0.4,0.2-0.4,0.3c-0.3,0.8-0.7,1.6-1,2.4c-0.1,0.2-0.1,0.4-0.1,0.6c0,0.2,0.2,0.4,0.3,0.4c0.2,0.1,0.4,0.1,0.6,0.1
				C48.6,64.9,48.8,64.8,48.9,64.6L48.9,64.6z"/>
		</g>
	</g>
	<g class="st1">
		<g>
			<path d="M53.2,47.9c0.9,2.4,1.8,4.8,2.7,7.2c0.1,0.4,0.5,0.6,0.9,0.5c0.4-0.1,0.7-0.5,0.5-0.9c-0.9-2.4-1.8-4.8-2.7-7.2
				c-0.1-0.4-0.5-0.6-0.9-0.5C53.3,47.1,53,47.5,53.2,47.9L53.2,47.9z"/>
		</g>
	</g>
	<g class="st1">
		<g>
			<path d="M33.1,45.2c0.6,3.7,1.1,7.5,1.5,11.2c0.1,1,1.6,1,1.5,0c-0.4-3.9-0.9-7.8-1.6-11.6C34.3,43.8,32.9,44.2,33.1,45.2
				L33.1,45.2z"/>
		</g>
	</g>
	<g class="st1">
		<g>
			<path d="M48.9,47.1c-1,4.6-2.3,9.1-4,13.4c-0.4,0.9,1.1,1.3,1.4,0.4c1.7-4.4,3-8.8,4-13.4C50.5,46.6,49.1,46.2,48.9,47.1
				L48.9,47.1z"/>
		</g>
	</g>
	<g class="st1">
		<g>
			<path d="M63.3,46.5c-0.9,1.5-1.8,3-2.7,4.6c-0.2,0.3-0.1,0.8,0.3,1c0.4,0.2,0.8,0.1,1-0.3c0.9-1.5,1.8-3,2.7-4.6
				c0.2-0.3,0.1-0.8-0.3-1C63.9,46,63.5,46.1,63.3,46.5L63.3,46.5z"/>
		</g>
	</g>
	<g class="st1">
		<g>
			<path d="M19.3,47.6c0.5,0.7,0.9,1.4,1.4,2.2c0.2,0.3,0.7,0.5,1,0.3c0.3-0.2,0.5-0.7,0.3-1c-0.5-0.7-0.9-1.4-1.4-2.2
				c-0.2-0.3-0.7-0.5-1-0.3C19.3,46.8,19.1,47.2,19.3,47.6L19.3,47.6z"/>
		</g>
	</g>
	<g class="st1">
		<path class="st8" d="M22.5,23.2c1.7,1.7,3.8,3.6,5.5,5.4c1-1,2-1.9,3-2.9c0.2-0.2,0.5-0.4,0.7-0.5c0.4-0.1,0.8,0.3,1.1,0.6
			c3.6,3.5,7.1,7,10.6,10.7c2.8-3.8,5.7-7.6,8.5-11.4c2.3,1.7,4.6,3.5,6.8,5.4c0.8-1.1,1.7-2.1,2.5-3.2c0.3-0.3,0.5-0.7,0.6-1.1
			c0.1-0.7-0.2-1.3-0.5-1.9c-1.1-1.9-2.3-3.7-3.6-5.5c-0.4,1.2-2.2,1.7-3.2,0.8c-1-0.9-1.8-1.9-2.3-3c-2.3-5.5-6.1-9.6-9.5-14.1
			c-4.1,5-8.2,10.1-12.3,15.1c-1.1-0.8-2.3-1.6-3.4-2.3c-0.1-0.1-0.3-0.2-0.4-0.2c-0.2,0-0.3,0.2-0.4,0.4
			C24.8,18.1,23.8,20.8,22.5,23.2z"/>
	</g>
	<g class="st1">
		<g>
			<path d="M43.6,8.8c1.2,3,2.8,5.9,4.8,8.6c0.2,0.3,0.6,0.5,1,0.3c0.3-0.2,0.5-0.7,0.3-1c-1.9-2.5-3.4-5.3-4.6-8.2
				c-0.2-0.4-0.5-0.6-0.9-0.5C43.8,7.9,43.5,8.4,43.6,8.8L43.6,8.8z"/>
		</g>
	</g>
	<g class="st1">
		<g>
			<path d="M57.5,23.3c0.4,0.9,0.9,1.7,1.5,2.4c0.1,0.2,0.2,0.3,0.4,0.3c0.2,0,0.4,0,0.6-0.1c0.2-0.1,0.3-0.3,0.3-0.4
				c0-0.2,0-0.4-0.1-0.6c-0.6-0.8-1.1-1.6-1.5-2.4c-0.2-0.4-0.7-0.5-1-0.3C57.4,22.5,57.3,22.9,57.5,23.3L57.5,23.3z"/>
		</g>
	</g>
	<g class="st1">
		<g>
			<path d="M27.4,19.4c0.2,0.3,0.5,0.6,0.7,0.9c0.1,0.1,0.1,0.1,0.2,0.2c0.1,0,0.2,0.1,0.3,0.1c0.1,0,0.2,0,0.3-0.1
				c0.1,0,0.2-0.1,0.2-0.2c0.1-0.1,0.2-0.3,0.2-0.5c0-0.1,0-0.1,0-0.2c0-0.1-0.1-0.2-0.2-0.3c-0.2-0.3-0.5-0.6-0.7-0.9
				c-0.1-0.1-0.1-0.1-0.2-0.2c-0.1,0-0.2-0.1-0.3-0.1c-0.1,0-0.2,0-0.3,0.1c-0.1,0-0.2,0.1-0.2,0.2c-0.1,0.1-0.2,0.3-0.2,0.5
				c0,0.1,0,0.1,0,0.2C27.2,19.2,27.3,19.3,27.4,19.4L27.4,19.4z"/>
		</g>
	</g>
	<g class="st1">
		<g>
			<path d="M43.1,13.5c0.4,0.8,0.8,1.6,1.1,2.5c0.1,0.2,0.3,0.3,0.4,0.3c0.2,0,0.4,0,0.6-0.1c0.2-0.1,0.3-0.3,0.3-0.4
				c0-0.2,0-0.4-0.1-0.6c-0.4-0.8-0.8-1.6-1.1-2.5c-0.1-0.2-0.3-0.3-0.4-0.3c-0.2,0-0.4,0-0.6,0.1c-0.2,0.1-0.3,0.3-0.3,0.4
				C43,13.1,43.1,13.3,43.1,13.5L43.1,13.5z"/>
		</g>
	</g>
	<g class="st1">
		<g>
			<path d="M54.9,23.4c0,0.1,0,0.1,0.1,0.2c0,0.1,0.1,0.2,0.2,0.3c0.1,0.1,0.1,0.2,0.2,0.3c0,0,0.1,0.1,0.1,0.1
				c0.1,0.1,0.1,0.1,0.2,0.2c0.1,0,0.2,0.1,0.3,0.1c0.1,0,0.2,0,0.3-0.1c0.1,0,0.2-0.1,0.2-0.2c0-0.1,0.1-0.1,0.1-0.2
				c0.1-0.1,0.1-0.2,0.1-0.4c0-0.1,0-0.1,0-0.2c0-0.1-0.1-0.2-0.2-0.3c0,0-0.1-0.1-0.1-0.1c0,0.1,0.1,0.1,0.1,0.2
				c-0.1-0.1-0.1-0.2-0.2-0.3c0,0.1,0.1,0.1,0.1,0.2c0-0.1,0-0.1-0.1-0.2c0-0.1-0.1-0.2-0.1-0.3c-0.1-0.1-0.1-0.1-0.2-0.2
				c-0.1-0.1-0.2-0.1-0.3-0.1c-0.1,0-0.2,0-0.3,0c-0.1,0-0.1,0.1-0.2,0.1c-0.1,0.1-0.2,0.2-0.3,0.3c0,0.1-0.1,0.1-0.1,0.2
				C54.9,23.2,54.9,23.3,54.9,23.4L54.9,23.4z"/>
		</g>
	</g>
	<g class="st1">
		<g>
			<path d="M21.8,24.2c1,0.9,2,1.8,3,2.6c0.7,0.7,1.5,1.7,2.4,2c1.9,0.8,2.9-2.4,4.6-2.4c1.1,0,2.3,1.6,3,2.4
				c0.9,0.9,1.8,1.9,2.7,2.8c1.8,1.9,3.6,3.8,5.4,5.7c0.3,0.3,0.8,0.3,1.1,0c3.2-3.7,6.2-7.4,9.2-11.3c-0.3,0-0.6,0.1-0.9,0.1
				c2.3,1.6,4.5,3.3,6.7,5.1c0.3,0.3,1,0.3,1.2-0.2c0.8-1.7,1.9-3.3,3.1-4.8c0.6-0.7-0.4-1.8-1.1-1.1c-1.3,1.6-2.4,3.3-3.3,5.1
				c0.4-0.1,0.8-0.1,1.2-0.2c-2.2-1.9-4.6-3.7-7-5.3c-0.2-0.2-0.7-0.1-0.9,0.1c-3,3.8-6,7.6-9.2,11.3c0.4,0,0.7,0,1.1,0
				c-1.9-2-3.7-3.9-5.6-5.9c-0.9-0.9-1.8-1.9-2.7-2.8c-0.8-0.8-1.5-1.7-2.5-2.2c-1.7-1-3.1,0.1-4.4,1.2c-0.3,0.2-0.7,0.8-1.1,0.8
				c-0.4,0-1.3-1.2-1.7-1.5c-1-0.9-2.1-1.9-3.1-2.8C22.1,22.5,21.1,23.5,21.8,24.2L21.8,24.2z"/>
		</g>
	</g>
</g>
<g id="Layer_6" class="st0">
	<g class="st1">
		<path class="st9" d="M55.8,16.3c-14.7-2.2-29.8-0.9-44.1,3.6c-2.3,0.7-4.5,1.5-6.5,2.9c-0.6,0.4-1.2,1-1.2,1.8
			c0.1,0.9,1,1.4,1.8,1.6c1.1,0.3,2.2,0.7,3.3,1c0.4,0.1,0.9,0.3,1.2,0.7c0.5,0.9-0.3,2-1,2.6c-1.9,1.6-4.1,2.8-5.8,4.7
			c-1.7,1.9-2.7,4.8-1.7,7.2c0.7,1.8,2.4,2.9,3.9,3.9c1.3,0.8,2.7,1.7,4,2.5c0.9,0.6,1.8,1.2,2.3,2.2c0.6,1.4,0.1,3.1-0.7,4.4
			C10,57.2,8.3,58.4,7,60s-2.2,4-1.4,6c0.8,2,3.1,2.8,5,3c3.5,0.4,5.4,1.5,8.8,2.3c12.7,3.1,27.6,3.5,40.2-3.4
			c1.4-0.8,2.8-1.7,4.1-2.7c1.3-1,2.3-2.8,2-4.5c-0.3-1.5-1.4-2.5-2.6-3.4c-1.1-0.8-2.4-1.5-3.2-2.7c-0.8-1.2-1.1-3-0.2-4.1
			c0.4-0.5,1.1-0.8,1.7-1C65,48,68.6,46.1,71.9,44c0.7-0.4,1.4-0.9,1.8-1.7c1.2-2-0.1-4.7-1.9-6.2c-1.7-1.5-3.9-2.3-5.2-4.2
			c-0.2-0.3-0.4-0.7-0.5-1.2c-0.3-1.9,2.1-3,2.9-4.7c0.8-1.6,0-3.7-1.3-4.8c-1.3-1.1-3-1.5-4.6-1.8C60.5,18.9,58.4,16.8,55.8,16.3z"
			/>
		<g>
			<path d="M56,15.6c-9.4-1.4-19-1.4-28.4-0.1c-4.8,0.7-9.6,1.7-14.2,3.1C11.2,19.3,9,20,6.9,20.9c-1.3,0.6-3.5,1.6-3.7,3.3
				c-0.2,1.8,1.7,2.4,3,2.9c0.7,0.2,3.2,0.6,3.3,1.4c0.2,1-1.9,2.1-2.5,2.6c-3.1,2.2-6.3,4.7-6.6,8.8c-0.3,4.3,3.5,6.3,6.7,8.3
				c1.9,1.2,4.7,2.3,4.1,5.1c-0.5,2.2-2.5,3.7-4,5.3C5,61,3.1,65.1,6,67.9c1.1,1.1,2.7,1.6,4.2,1.8c2.1,0.3,4.1,0.8,6.1,1.5
				c7.9,2.6,16.8,3.5,25.1,2.8c4.3-0.4,8.5-1.2,12.5-2.7c1.9-0.7,3.8-1.5,5.7-2.5c1.8-1,4-2.1,5.4-3.7c1.1-1.2,1.7-2.9,1.4-4.5
				c-0.4-1.8-1.8-3-3.2-4c-1.5-1-4-2.6-3.3-4.9c0.4-1.1,1.8-1.5,2.8-1.9c1.2-0.5,2.4-1.1,3.5-1.7c2-1,4-2.2,6-3.4
				c1.4-0.9,2.6-2.1,2.7-3.9c0.1-4.1-3.7-5.7-6.4-7.9c-0.8-0.6-1.9-1.7-1.7-2.8c0.2-0.8,1-1.4,1.6-2c1.1-1.2,1.8-2.5,1.6-4.1
				c-0.3-1.7-1.4-3.2-2.9-4c-1.8-1-3.9-1-5.7-1.9C59.6,17.2,58,16,56,15.6c-0.9-0.2-1.3,1.2-0.4,1.4c2,0.5,3.6,1.7,5.4,2.5
				c1.7,0.7,3.6,0.8,5.2,1.6c1.8,0.9,3.2,3.2,1.9,5.1c-0.8,1.1-2.1,1.9-2.6,3.2c-1.2,3.5,3.8,5.5,5.8,7.3c1.3,1.1,2.6,3.1,2,4.8
				c-0.3,1-1.3,1.5-2.2,2.1c-1,0.6-2,1.2-3,1.8c-1.9,1.1-3.8,2-5.7,2.9c-1.5,0.7-3.4,1.2-3.9,3c-1.1,3.8,2.9,5.4,5.1,7.5
				c1.7,1.6,1.9,3.9,0.2,5.5c-1.5,1.4-3.5,2.5-5.3,3.4c-3.7,1.9-7.7,3.3-11.9,4.1c-7.9,1.5-16.1,1.1-23.9-0.5
				c-1.9-0.4-3.8-0.8-5.6-1.4c-1.9-0.6-3.7-1.2-5.6-1.5C9.9,68.1,8,68,6.8,66.6c-1.4-1.6-0.7-4,0.4-5.6c1.9-2.9,6.1-5.1,5.7-9.1
				c-0.2-1.6-1.3-2.7-2.6-3.6C8.5,47.2,6.7,46.2,5,45c-1.7-1.2-3.1-2.7-3-5c0.1-2.1,1.3-3.9,2.8-5.3c1.4-1.3,3.1-2.3,4.6-3.5
				c1-0.8,2.2-2.2,1.5-3.6c-0.3-0.6-0.9-0.9-1.5-1.2c-1.1-0.4-2.3-0.7-3.4-1.1c-0.3-0.1-0.9-0.3-1.1-0.6c-0.4-0.8,0.4-1.2,0.9-1.5
				c1-0.7,2.1-1.2,3.2-1.6C13,20,17.4,19,21.7,18.1c8.9-1.9,18-2.5,27.1-1.8c2.3,0.2,4.5,0.4,6.8,0.8C56.5,17.2,56.9,15.7,56,15.6z"
				/>
		</g>
	</g>
	<g class="st1">
		<path class="st9" d="M36.8,57.1C36.8,57.1,36.8,57.1,36.8,57.1c0.5-0.1,0.8-0.4,1.2-0.7c7.7-6.3,15.4-12.5,23.1-18.8
			C54.1,26.2,43.8,13,36.9,1.9c-7.8,12.3-16.4,26.9-24.2,39.2c7,6,14.6,11.2,22.6,15.5c2.2,1.2,1.4-2.1,1.3-3.6
			c-0.1-2.5-0.2-4.9-0.2-7.4c-0.1-4.9-0.2-9.8-0.2-14.7c0-9.7,0.2-19.4,0.6-29.1"/>
		<g>
			<path d="M37,57.8c0.8-0.1,1.5-0.8,2.1-1.3c1-0.8,2.1-1.7,3.1-2.5c2.2-1.8,4.4-3.5,6.6-5.3c4.3-3.5,8.6-7,12.9-10.5
				c0.2-0.2,0.3-0.6,0.1-0.9C54.2,25,45.2,13.7,37.5,1.5c-0.3-0.5-1-0.5-1.3,0c-8.2,13-16,26.2-24.2,39.2c-0.2,0.3-0.1,0.7,0.1,0.9
				c4.4,3.7,9.1,7.2,13.9,10.4c2.5,1.6,5,3.2,7.6,4.6c1.1,0.6,3,1.8,3.7,0c0.5-1.5,0-3.6-0.1-5.1c-0.1-3.1-0.2-6.2-0.3-9.3
				c-0.1-6.3-0.2-12.6-0.1-19C37,16.1,37.2,9,37.5,1.8c0-1-1.5-1-1.5,0c-0.5,11.5-0.7,23-0.5,34.5c0.1,5.6,0,11.3,0.4,16.9
				c0,0.6,0.1,1.3,0.2,1.9c0,0.2,0.1,0.7,0,0.9c-0.4,0.5,0.1,0,0,0.1c-0.2,0.1-0.9-0.5-1.1-0.6c-2.3-1.3-4.6-2.7-6.8-4.1
				c-5.2-3.3-10.1-6.9-14.8-10.9c0,0.3,0.1,0.6,0.1,0.9c8.2-13,16-26.2,24.2-39.2c-0.4,0-0.9,0-1.3,0c7.6,12.2,16.7,23.5,24.2,35.8
				c0-0.3,0.1-0.6,0.1-0.9c-4,3.3-8.1,6.6-12.1,9.8c-2,1.6-4,3.2-6,4.8c-1,0.8-2.1,1.7-3.1,2.5c-0.7,0.6-1.8,1.9-2.8,2
				C35.6,56.5,36,58,37,57.8L37,57.8z"/>
		</g>
	</g>
	<g class="st1">
		<g>
			<path d="M14.2,64c1,0,1-1.5,0-1.5C13.3,62.5,13.3,64,14.2,64L14.2,64z"/>
		</g>
	</g>
	<g class="st1">
		<g>
			<path d="M17.8,58.6c1,0,1-1.5,0-1.5C16.8,57.1,16.8,58.6,17.8,58.6L17.8,58.6z"/>
		</g>
	</g>
	<g class="st1">
		<g>
			<path d="M24.2,64.5c1,0,1-1.5,0-1.5C23.2,63,23.2,64.5,24.2,64.5L24.2,64.5z"/>
		</g>
	</g>
	<g class="st1">
		<g>
			<path d="M25.1,60.2c1,0,1-1.5,0-1.5C24.2,58.7,24.2,60.2,25.1,60.2L25.1,60.2z"/>
		</g>
	</g>
	<g class="st1">
		<g>
			<path d="M32.1,64c1,0,1-1.5,0-1.5C31.2,62.5,31.2,64,32.1,64L32.1,64z"/>
		</g>
	</g>
	<g class="st1">
		<g>
			<path d="M36,69c1,0,1-1.5,0-1.5C35.1,67.5,35.1,69,36,69L36,69z"/>
		</g>
	</g>
	<g class="st1">
		<g>
			<path d="M45.7,67.4c1,0,1-1.5,0-1.5C44.8,65.9,44.8,67.4,45.7,67.4L45.7,67.4z"/>
		</g>
	</g>
	<g class="st1">
		<g>
			<path d="M50.7,61c1,0,1-1.5,0-1.5C49.7,59.5,49.7,61,50.7,61L50.7,61z"/>
		</g>
	</g>
	<g class="st1">
		<g>
			<path d="M54.8,64.9c1,0,1-1.5,0-1.5C53.9,63.4,53.9,64.9,54.8,64.9L54.8,64.9z"/>
		</g>
	</g>
	<g class="st1">
		<g>
			<path d="M60.5,64c1,0,1-1.5,0-1.5C59.6,62.5,59.6,64,60.5,64L60.5,64z"/>
		</g>
	</g>
	<g class="st1">
		<g>
			<path d="M57.3,57.7c1,0,1-1.5,0-1.5C56.4,56.2,56.4,57.7,57.3,57.7L57.3,57.7z"/>
		</g>
	</g>
	<g class="st1">
		<g>
			<path d="M47.9,56.9c1,0,1-1.5,0-1.5C46.9,55.4,46.9,56.9,47.9,56.9L47.9,56.9z"/>
		</g>
	</g>
	<g class="st1">
		<g>
			<path d="M54.6,50.4c1,0,1-1.5,0-1.5C53.6,48.9,53.6,50.4,54.6,50.4L54.6,50.4z"/>
		</g>
	</g>
	<g class="st1">
		<g>
			<path d="M62.7,42.9c1,0,1-1.5,0-1.5C61.7,41.4,61.7,42.9,62.7,42.9L62.7,42.9z"/>
		</g>
	</g>
	<g class="st1">
		<g>
			<path d="M68.7,41.9c1,0,1-1.5,0-1.5C67.7,40.4,67.7,41.9,68.7,41.9L68.7,41.9z"/>
		</g>
	</g>
	<g class="st1">
		<g>
			<path d="M66.9,38.9c1,0,1-1.5,0-1.5C65.9,37.4,65.9,38.9,66.9,38.9L66.9,38.9z"/>
		</g>
	</g>
	<g class="st1">
		<g>
			<path d="M56.4,24.3c1,0,1-1.5,0-1.5C55.4,22.8,55.4,24.3,56.4,24.3L56.4,24.3z"/>
		</g>
	</g>
	<g class="st1">
		<g>
			<path d="M58.6,27.7c1,0,1-1.5,0-1.5C57.7,26.2,57.7,27.7,58.6,27.7L58.6,27.7z"/>
		</g>
	</g>
	<g class="st1">
		<g>
			<path d="M62.9,24.6c1,0,1-1.5,0-1.5C61.9,23.1,61.9,24.6,62.9,24.6L62.9,24.6z"/>
		</g>
	</g>
	<g class="st1">
		<g>
			<path d="M63,29.7c1,0,1-1.5,0-1.5C62,28.2,62,29.7,63,29.7L63,29.7z"/>
		</g>
	</g>
	<g class="st1">
		<g>
			<path d="M6.1,41.5c1,0,1-1.5,0-1.5C5.1,40,5.1,41.5,6.1,41.5L6.1,41.5z"/>
		</g>
	</g>
	<g class="st1">
		<g>
			<path d="M9.8,37.2c1,0,1-1.5,0-1.5C8.8,35.7,8.8,37.2,9.8,37.2L9.8,37.2z"/>
		</g>
	</g>
	<g class="st1">
		<g>
			<path d="M14.7,32c1,0,1-1.5,0-1.5C13.8,30.5,13.8,32,14.7,32L14.7,32z"/>
		</g>
	</g>
	<g class="st1">
		<g>
			<path d="M10.1,24.6c1,0,1-1.5,0-1.5C9.1,23.1,9.1,24.6,10.1,24.6L10.1,24.6z"/>
		</g>
	</g>
	<g class="st1">
		<g>
			<path d="M17.6,22c1,0,1-1.5,0-1.5C16.6,20.5,16.6,22,17.6,22L17.6,22z"/>
		</g>
	</g>
	<g class="st1">
		<g>
			<path d="M21.9,21.3c1,0,1-1.5,0-1.5C21,19.8,21,21.3,21.9,21.3L21.9,21.3z"/>
		</g>
	</g>
	<g class="st1">
		<g>
			<path d="M16.4,26.9c1,0,1-1.5,0-1.5C15.4,25.4,15.4,26.9,16.4,26.9L16.4,26.9z"/>
		</g>
	</g>
	<g class="st1">
		<g>
			<path d="M16.1,50.8c1,0,1-1.5,0-1.5C15.2,49.3,15.2,50.8,16.1,50.8L16.1,50.8z"/>
		</g>
	</g>
	<g class="st1">
		<g>
			<path d="M21.5,52.7c1,0,1-1.5,0-1.5C20.5,51.2,20.5,52.7,21.5,52.7L21.5,52.7z"/>
		</g>
	</g>
	<g class="st1">
		<g>
			<path d="M19.3,67.5c1,0,1-1.5,0-1.5C18.4,66,18.4,67.5,19.3,67.5L19.3,67.5z"/>
		</g>
	</g>
	<g class="st1">
		<g>
			<path d="M29.2,70c1,0,1-1.5,0-1.5C28.2,68.5,28.2,70,29.2,70L29.2,70z"/>
		</g>
	</g>
	<g class="st1">
		<g>
			<path d="M38,62.2c1,0,1-1.5,0-1.5C37.1,60.7,37.1,62.2,38,62.2L38,62.2z"/>
		</g>
	</g>
	<g class="st1">
		<g>
			<path d="M41.9,69.6c1,0,1-1.5,0-1.5C41,68.1,41,69.6,41.9,69.6L41.9,69.6z"/>
		</g>
	</g>
	<g class="st1">
		<g>
			<path d="M44.4,63.8c1,0,1-1.5,0-1.5C43.5,62.3,43.5,63.8,44.4,63.8L44.4,63.8z"/>
		</g>
	</g>
	<g class="st1">
		<g>
			<path d="M50.7,68.3c1,0,1-1.5,0-1.5C49.7,66.8,49.7,68.3,50.7,68.3L50.7,68.3z"/>
		</g>
	</g>
	<g class="st1">
		<g>
			<path d="M57.8,61.3c1,0,1-1.5,0-1.5C56.8,59.8,56.8,61.3,57.8,61.3L57.8,61.3z"/>
		</g>
	</g>
	<g class="st1">
		<g>
			<path d="M39.2,25.1c0.3,4.5,0.6,8.9,1,13.4c0.1,1,1.6,1,1.5,0c-0.3-4.5-0.6-8.9-1-13.4C40.6,24.2,39.1,24.2,39.2,25.1L39.2,25.1z
				"/>
		</g>
	</g>
	<g class="st1">
		<g>
			<path d="M52.9,32.9c1,1.3,2,2.6,3.1,4c0.2,0.3,0.8,0.3,1.1,0c0.3-0.3,0.3-0.7,0-1.1c-1-1.3-2-2.6-3.1-4c-0.2-0.3-0.8-0.3-1.1,0
				C52.6,32.2,52.7,32.6,52.9,32.9L52.9,32.9z"/>
		</g>
	</g>
	<g class="st1">
		<g>
			<path d="M23,46.3c2.3,1.5,4.7,2.9,7.2,4.1c0.9,0.5,1.6-0.8,0.8-1.3c-2.4-1.3-4.8-2.7-7.2-4.1C22.9,44.5,22.2,45.8,23,46.3
				L23,46.3z"/>
		</g>
	</g>
	<g class="st1">
		<g>
			<path d="M32.2,16.6c0.1,2.1,0.1,4.3,0.2,6.4c0,1,1.5,1,1.5,0c-0.1-2.1-0.1-4.3-0.2-6.4C33.7,15.7,32.2,15.7,32.2,16.6L32.2,16.6z
				"/>
		</g>
	</g>
</g>
<g id="Layer_7" class="st0">
	<g class="st1">
		<g>
			<path class="st10" d="M31.6,32.1c-2.4-2.1-3.3-5.6-3-8.7S30,17,29.4,14c-0.7-4.1-4.3-7.2-8.5-8.9c3.1,0.6,6.3,1.3,9.1,2.7
				s4.9,3.9,5.1,6.8c0.3,3.7-2.6,7.5-1.6,11c0.7,2.4,2.9,3.9,4.8,5.6c0.1,0.1,0.3,0.2,0.3,0.4c0,0.2-0.1,0.4-0.2,0.5
				C37.3,33.8,33.3,33.4,31.6,32.1z"/>
			<g>
				<path d="M32.5,31.2c-4.9-4.5-1.2-10.9-1.7-16.4c-0.4-5.4-4.8-9-9.5-11c-0.2,0.8-0.4,1.6-0.7,2.4c5.5,1.1,14.7,3.1,13.1,10.7
					c-0.6,2.8-2.1,5.7-1.5,8.7c0.3,1.4,1.1,2.6,2.1,3.7c0.5,0.6,1.1,1.1,1.7,1.6c0.4,0.4,1.3,0.9,1.6,1.4c0-0.3-0.1-0.6-0.1-1
					c-0.1,0.8-1.8,0.7-2.3,0.7c-1-0.1-2-0.4-2.8-0.9c-1.3-0.9-2.6,1.3-1.3,2.2c2,1.4,5.5,1.9,7.6,0.5c1.1-0.7,1.8-2.2,0.7-3.3
					c-1.2-1.2-2.7-2.1-3.7-3.5c-2.3-3,0.1-6.7,0.6-9.9c0.6-3.4-0.6-6.5-3.2-8.7c-3.3-2.7-7.6-3.6-11.7-4.4c-1.6-0.3-2.1,1.8-0.7,2.4
					c2.3,1,4.6,2.4,6.1,4.5c1.7,2.3,1.8,5,1.4,7.8c-0.4,2.7-1,5.3-0.6,8c0.4,2.5,1.4,4.8,3.3,6.5C31.9,34.1,33.7,32.3,32.5,31.2z"/>
			</g>
		</g>
		<g>
			<path class="st10" d="M29.7,35.8c-3.1-0.6-5.6-3.2-7-6s-2-6.2-4-8.6C16,18,11.4,17.1,6.9,17.7c3-1,6.1-2.1,9.2-2.2
				s6.2,0.9,7.8,3.3c2.1,3.1,1.5,7.8,4.1,10.4c1.7,1.7,4.5,2,6.9,2.4c0.2,0,0.4,0.1,0.5,0.2c0.1,0.1,0.1,0.3,0.1,0.5
				C35.4,34.4,31.8,36,29.7,35.8z"/>
			<g>
				<path d="M30,34.6c-6.2-1.3-6.5-8.1-9.2-12.6c-2.9-4.8-8.6-6.2-13.9-5.5c0.1,0.8,0.2,1.6,0.3,2.5c3.4-1.2,7.2-2.6,10.8-2
					c1.5,0.2,3,0.7,4.1,1.8c1.1,1,1.6,2.3,1.9,3.7c0.7,2.6,1,5.5,2.9,7.6c0.9,1,2.2,1.7,3.4,2.1c0.7,0.2,1.5,0.4,2.2,0.5
					c0.6,0.1,1.7,0.1,2.2,0.5c-0.2-0.2-0.4-0.5-0.6-0.7c0.3,0.7-1.2,1.5-1.7,1.7c-0.9,0.4-1.9,0.7-2.9,0.6c-1.6-0.1-1.6,2.4,0,2.5
					c2.5,0.2,5.9-1.1,6.9-3.5c0.6-1.4,0.1-2.7-1.4-3.1c-1.7-0.4-3.4-0.5-5-1.2c-3-1.5-3-5.4-3.9-8.2c-1-3.2-3.2-5.4-6.4-6.3
					c-4.5-1.2-9.1,0.4-13.3,1.8c-1.2,0.4-1.1,2.6,0.3,2.5c2.7-0.3,5.5-0.3,8,0.9c2.5,1.2,3.9,3.4,4.9,5.9c1,2.5,1.7,5,3.3,7.1
					c1.5,2,3.7,3.6,6.2,4.1C30.9,37.3,31.6,34.9,30,34.6z"/>
			</g>
		</g>
		<g>
			<path class="st10" d="M29.9,39.9c-3,1-6.5,0.1-9-1.8c-2.6-1.8-4.8-4.4-7.8-5.4c-3.9-1.4-8.4,0.1-12,2.9c2.1-2.4,4.3-4.9,6.9-6.5
				s5.8-2.3,8.5-1c3.3,1.6,5.2,6,8.8,6.9c2.4,0.6,4.9-0.5,7.2-1.4c0.2-0.1,0.3-0.1,0.5-0.1c0.2,0.1,0.3,0.2,0.4,0.4
				C34.2,35.9,31.8,39.1,29.9,39.9z"/>
			<g>
				<path d="M29.5,38.7c-6,1.9-9.7-3.7-14.3-6.3c-4.9-2.8-10.6-1.1-14.8,2.1c0.5,0.7,1,1.3,1.5,2c3.8-4.3,10.2-11.2,16-5.8
					c1.8,1.7,3.4,4,5.7,5.1c1.4,0.7,2.9,0.8,4.4,0.5c0.9-0.1,1.7-0.4,2.6-0.7c0.6-0.2,1.6-0.8,2.3-0.8c-0.3-0.1-0.6-0.2-0.9-0.4
					c0.6,0.5-0.3,1.9-0.6,2.4c-0.6,0.8-1.3,1.5-2.2,2c-1.4,0.7-0.2,2.9,1.3,2.2c2.2-1.1,4.6-4,4.2-6.7c-0.2-1.5-1.3-2.3-2.8-1.8
					c-1.9,0.6-3.8,1.6-5.9,1.4c-3-0.4-4.8-3.7-6.9-5.5c-2.6-2.2-5.9-2.8-9.2-1.6c-4,1.5-6.9,4.8-9.7,7.9c-0.9,1,0.3,2.9,1.5,2
					c2.2-1.7,4.7-3,7.5-3.2c2.7-0.2,5,1,7.1,2.7c2,1.6,3.9,3.4,6.3,4.4c2.4,1,5.1,1.3,7.6,0.5C31.7,40.6,31.1,38.2,29.5,38.7z"/>
			</g>
		</g>
		<g>
			<path class="st10" d="M32.1,43.4c-2.1,2.4-5.6,3.3-8.7,3C20.2,46.1,17,45,14,45.6c-4.1,0.7-7.2,4.3-8.9,8.5
				c0.6-3.1,1.3-6.3,2.7-9.1c1.5-2.7,3.9-4.9,6.8-5.1c3.7-0.3,7.5,2.6,11,1.6c2.4-0.7,3.9-2.9,5.6-4.8c0.1-0.1,0.2-0.3,0.4-0.3
				c0.2,0,0.4,0.1,0.5,0.2C33.8,37.7,33.4,41.7,32.1,43.4z"/>
			<g>
				<path d="M31.2,42.5c-4.5,4.9-10.9,1.2-16.4,1.7c-5.4,0.4-9,4.8-11,9.5c0.8,0.2,1.6,0.4,2.4,0.7c1.1-5.5,3.1-14.7,10.7-13.1
					c2.8,0.6,5.7,2.1,8.7,1.5c1.4-0.3,2.6-1.1,3.7-2.1c0.6-0.5,1.1-1.1,1.6-1.7c0.4-0.4,0.9-1.3,1.4-1.6c-0.3,0-0.6,0.1-1,0.1
					c0.8,0.1,0.7,1.8,0.7,2.3c-0.1,1-0.4,2-0.9,2.8c-0.9,1.3,1.3,2.6,2.2,1.3c1.4-2,1.9-5.5,0.5-7.6c-0.7-1.1-2.2-1.8-3.3-0.7
					c-1.2,1.2-2.1,2.7-3.5,3.7c-3,2.3-6.7-0.1-9.9-0.6c-3.4-0.6-6.5,0.6-8.7,3.2c-2.7,3.3-3.6,7.6-4.4,11.7
					c-0.3,1.6,1.8,2.1,2.4,0.7c1-2.3,2.4-4.6,4.5-6.1c2.3-1.7,5-1.8,7.8-1.4c2.7,0.4,5.3,1,8,0.6c2.5-0.4,4.8-1.4,6.5-3.3
					C34.1,43.1,32.3,41.3,31.2,42.5z"/>
			</g>
		</g>
		<g>
			<path class="st10" d="M35.8,45.3c-0.6,3.1-3.2,5.6-6,7c-2.9,1.3-6.2,2-8.6,4c-3.2,2.7-4.1,7.4-3.5,11.8c-1-3-2.1-6.1-2.2-9.2
				c-0.1-3.1,0.9-6.2,3.3-7.8c3.1-2.1,7.8-1.5,10.4-4.1c1.7-1.7,2-4.5,2.4-6.9c0-0.2,0.1-0.4,0.2-0.5c0.1-0.1,0.3-0.1,0.5-0.1
				C34.4,39.6,36,43.2,35.8,45.3z"/>
			<g>
				<path d="M34.6,45c-1.3,6.2-8.1,6.5-12.6,9.2c-4.8,2.9-6.2,8.6-5.5,13.9c0.8-0.1,1.6-0.2,2.5-0.3c-1.2-3.4-2.6-7.2-2-10.8
					c0.2-1.5,0.7-3,1.8-4.1c1-1.1,2.3-1.6,3.7-1.9c2.6-0.7,5.5-1,7.6-2.9c1-0.9,1.7-2.2,2.1-3.4c0.2-0.7,0.4-1.5,0.5-2.2
					c0.1-0.6,0.1-1.7,0.5-2.2c-0.2,0.2-0.5,0.4-0.7,0.6c0.7-0.3,1.5,1.2,1.7,1.7c0.4,0.9,0.7,1.9,0.6,2.9c-0.1,1.6,2.4,1.6,2.5,0
					c0.2-2.5-1.1-5.9-3.5-6.9c-1.4-0.6-2.7-0.1-3.1,1.4c-0.4,1.7-0.5,3.4-1.2,5c-1.5,3-5.4,3-8.2,3.9c-3.2,1-5.4,3.2-6.3,6.4
					c-1.2,4.5,0.4,9.1,1.8,13.3c0.4,1.2,2.6,1.1,2.5-0.3c-0.3-2.7-0.3-5.5,0.9-8c1.2-2.5,3.4-3.9,5.9-4.9c2.5-1,5-1.7,7.1-3.3
					c2-1.5,3.6-3.7,4.1-6.2C37.3,44.1,34.9,43.4,34.6,45z"/>
			</g>
		</g>
		<g>
			<path class="st10" d="M39.9,45.1c1,3,0.1,6.5-1.8,9c-1.8,2.6-4.4,4.8-5.4,7.8c-1.4,3.9,0.1,8.4,2.9,12c-2.4-2.1-4.9-4.3-6.5-6.9
				s-2.3-5.8-1-8.5c1.6-3.3,6-5.2,6.9-8.8c0.6-2.4-0.5-4.9-1.4-7.2c-0.1-0.2-0.1-0.3-0.1-0.5c0.1-0.2,0.2-0.3,0.4-0.4
				C35.9,40.8,39.1,43.2,39.9,45.1z"/>
			<g>
				<path d="M38.7,45.5c1.9,6-3.7,9.7-6.3,14.3c-2.8,4.9-1.1,10.6,2.1,14.8c0.7-0.5,1.3-1,2-1.5c-4.3-3.8-11.2-10.2-5.8-16
					c1.7-1.8,4-3.4,5.1-5.7c0.7-1.4,0.8-2.9,0.5-4.4c-0.1-0.9-0.4-1.7-0.7-2.6c-0.2-0.6-0.8-1.6-0.8-2.3c-0.1,0.3-0.2,0.6-0.4,0.9
					c0.5-0.6,1.9,0.3,2.4,0.6c0.8,0.6,1.5,1.3,2,2.2c0.7,1.4,2.9,0.2,2.2-1.3c-1.1-2.2-4-4.6-6.7-4.2c-1.5,0.2-2.3,1.3-1.8,2.8
					c0.6,1.9,1.6,3.8,1.4,5.9c-0.4,3-3.7,4.8-5.5,6.9c-2.2,2.6-2.8,5.9-1.6,9.2c1.5,4,4.8,6.9,7.9,9.7c1,0.9,2.9-0.3,2-1.5
					c-1.7-2.2-3-4.7-3.2-7.5c-0.2-2.7,1-5,2.7-7.1c1.6-2,3.4-3.9,4.4-6.3c1-2.4,1.3-5.1,0.5-7.6C40.6,43.3,38.2,43.9,38.7,45.5z"/>
			</g>
		</g>
		<g>
			<path class="st10" d="M43.4,42.9c2.4,2.1,3.3,5.6,3,8.7C46.1,54.8,45,58,45.6,61c0.7,4.1,4.3,7.2,8.5,8.9
				c-3.1-0.6-6.3-1.3-9.1-2.7c-2.7-1.5-4.9-3.9-5.1-6.8c-0.3-3.7,2.6-7.5,1.6-11c-0.7-2.4-2.9-3.9-4.8-5.6c-0.1-0.1-0.3-0.2-0.3-0.4
				c0-0.2,0.1-0.4,0.2-0.5C37.7,41.2,41.7,41.6,43.4,42.9z"/>
			<g>
				<path d="M42.5,43.8c4.9,4.5,1.2,10.9,1.7,16.4c0.4,5.4,4.8,9,9.5,11c0.2-0.8,0.4-1.6,0.7-2.4c-5.5-1.1-14.7-3.1-13.1-10.7
					c0.6-2.8,2.1-5.7,1.5-8.7c-0.3-1.4-1.1-2.6-2.1-3.7c-0.5-0.6-1.1-1.1-1.7-1.6c-0.4-0.4-1.3-0.9-1.6-1.4c0,0.3,0.1,0.6,0.1,1
					c0.1-0.8,1.8-0.7,2.3-0.7c1,0.1,2,0.4,2.8,0.9c1.3,0.9,2.6-1.3,1.3-2.2c-2-1.4-5.5-1.9-7.6-0.5c-1.1,0.7-1.8,2.2-0.7,3.3
					c1.2,1.2,2.7,2.1,3.7,3.5c2.3,3-0.1,6.7-0.6,9.9c-0.6,3.4,0.6,6.5,3.2,8.7c3.3,2.7,7.6,3.6,11.7,4.4c1.6,0.3,2.1-1.8,0.7-2.4
					c-2.3-1-4.6-2.4-6.1-4.5c-1.7-2.3-1.8-5-1.4-7.8c0.4-2.7,1-5.3,0.6-8c-0.4-2.5-1.4-4.8-3.3-6.5C43.1,40.9,41.3,42.7,42.5,43.8z"
					/>
			</g>
		</g>
		<g>
			<path class="st10" d="M45.3,39.2c3.1,0.6,5.6,3.2,7,6c1.3,2.9,2,6.2,4,8.6c2.7,3.2,7.4,4.1,11.8,3.5c-3,1-6.1,2.1-9.2,2.2
				c-3.1,0.1-6.2-0.9-7.8-3.3c-2.1-3.1-1.5-7.8-4.1-10.4c-1.7-1.7-4.5-2-6.9-2.4c-0.2,0-0.4-0.1-0.5-0.2c-0.1-0.1-0.1-0.3-0.1-0.5
				C39.6,40.6,43.2,39,45.3,39.2z"/>
			<g>
				<path d="M45,40.4c6.2,1.3,6.5,8.1,9.2,12.6c2.9,4.8,8.6,6.2,13.9,5.5c-0.1-0.8-0.2-1.6-0.3-2.5c-3.4,1.2-7.2,2.6-10.8,2
					c-1.5-0.2-3-0.7-4.1-1.8c-1.1-1-1.6-2.3-1.9-3.7c-0.7-2.6-1-5.5-2.9-7.6c-0.9-1-2.2-1.7-3.4-2.1c-0.7-0.2-1.5-0.4-2.2-0.5
					c-0.6-0.1-1.7-0.1-2.2-0.5c0.2,0.2,0.4,0.5,0.6,0.7c-0.3-0.7,1.2-1.5,1.7-1.7c0.9-0.4,1.9-0.7,2.9-0.6c1.6,0.1,1.6-2.4,0-2.5
					c-2.5-0.2-5.9,1.1-6.9,3.5c-0.6,1.4-0.1,2.7,1.4,3.1c1.7,0.4,3.4,0.5,5,1.2c3,1.5,3,5.4,3.9,8.2c1,3.2,3.2,5.4,6.4,6.3
					c4.5,1.2,9.1-0.4,13.3-1.8c1.2-0.4,1.1-2.6-0.3-2.5c-2.7,0.3-5.5,0.3-8-0.9c-2.5-1.2-3.9-3.4-4.9-5.9c-1-2.5-1.7-5-3.3-7.1
					c-1.5-2-3.7-3.6-6.2-4.1C44.1,37.7,43.4,40.1,45,40.4z"/>
			</g>
		</g>
		<g>
			<path class="st10" d="M45.1,35.1c3-1,6.5-0.1,9,1.8c2.6,1.8,4.8,4.4,7.8,5.4c3.9,1.4,8.4-0.1,12-2.9c-2.1,2.4-4.3,4.9-6.9,6.5
				s-5.8,2.3-8.5,1c-3.3-1.6-5.2-6-8.8-6.9c-2.4-0.6-4.9,0.5-7.2,1.4c-0.2,0.1-0.3,0.1-0.5,0.1c-0.2-0.1-0.3-0.2-0.4-0.4
				C40.8,39.1,43.2,35.9,45.1,35.1z"/>
			<g>
				<path d="M45.5,36.3c6-1.9,9.7,3.7,14.3,6.3c4.9,2.8,10.6,1.1,14.8-2.1c-0.5-0.7-1-1.3-1.5-2c-3.8,4.3-10.2,11.2-16,5.8
					c-1.8-1.7-3.4-4-5.7-5.1c-1.4-0.7-2.9-0.8-4.4-0.5c-0.9,0.1-1.7,0.4-2.6,0.7c-0.6,0.2-1.6,0.8-2.3,0.8c0.3,0.1,0.6,0.2,0.9,0.4
					c-0.6-0.5,0.3-1.9,0.6-2.4c0.6-0.8,1.3-1.5,2.2-2c1.4-0.7,0.2-2.9-1.3-2.2c-2.2,1.1-4.6,4-4.2,6.7c0.2,1.5,1.3,2.3,2.8,1.8
					c1.9-0.6,3.8-1.6,5.9-1.4c3,0.4,4.8,3.7,6.9,5.5c2.6,2.2,5.9,2.8,9.2,1.6c4-1.5,6.9-4.8,9.7-7.9c0.9-1-0.3-2.9-1.5-2
					c-2.2,1.7-4.7,3-7.5,3.2c-2.7,0.2-5-1-7.1-2.7c-2-1.6-3.9-3.4-6.3-4.4c-2.4-1-5.1-1.3-7.6-0.5C43.3,34.4,43.9,36.8,45.5,36.3z"
					/>
			</g>
		</g>
		<g>
			<path class="st10" d="M42.9,31.6c2.1-2.4,5.6-3.3,8.7-3S58,30,61,29.4c4.1-0.7,7.2-4.3,8.9-8.5c-0.6,3.1-1.3,6.3-2.7,9.1
				s-3.9,4.9-6.8,5.1c-3.7,0.3-7.5-2.6-11-1.6c-2.4,0.7-3.9,2.9-5.6,4.8c-0.1,0.1-0.2,0.3-0.4,0.3c-0.2,0-0.4-0.1-0.5-0.2
				C41.2,37.3,41.6,33.3,42.9,31.6z"/>
			<g>
				<path d="M43.8,32.5c4.5-4.9,10.9-1.2,16.4-1.7c5.4-0.4,9-4.8,11-9.5c-0.8-0.2-1.6-0.4-2.4-0.7c-1.1,5.5-3.1,14.7-10.7,13.1
					c-2.8-0.6-5.7-2.1-8.7-1.5c-1.4,0.3-2.6,1.1-3.7,2.1c-0.6,0.5-1.1,1.1-1.6,1.7c-0.4,0.4-0.9,1.3-1.4,1.6c0.3,0,0.6-0.1,1-0.1
					c-0.8-0.1-0.7-1.8-0.7-2.3c0.1-1,0.4-2,0.9-2.8c0.9-1.3-1.3-2.6-2.2-1.3c-1.4,2-1.9,5.5-0.5,7.6c0.7,1.1,2.2,1.8,3.3,0.7
					c1.2-1.2,2.1-2.7,3.5-3.7c3-2.3,6.7,0.1,9.9,0.6c3.4,0.6,6.5-0.6,8.7-3.2c2.7-3.3,3.6-7.6,4.4-11.7c0.3-1.6-1.8-2.1-2.4-0.7
					c-1,2.3-2.4,4.6-4.5,6.1c-2.3,1.7-5,1.8-7.8,1.4c-2.7-0.4-5.3-1-8-0.6c-2.5,0.4-4.8,1.4-6.5,3.3C40.9,31.9,42.7,33.7,43.8,32.5z
					"/>
			</g>
		</g>
		<g>
			<path class="st10" d="M39.2,29.7c0.6-3.1,3.2-5.6,6-7c2.9-1.3,6.2-2,8.6-4c3.2-2.7,4.1-7.4,3.5-11.8c1,3,2.1,6.1,2.2,9.2
				c0.1,3.1-0.9,6.2-3.3,7.8c-3.1,2.1-7.8,1.5-10.4,4.1c-1.7,1.7-2,4.5-2.4,6.9c0,0.2-0.1,0.4-0.2,0.5c-0.1,0.1-0.3,0.1-0.5,0.1
				C40.6,35.4,39,31.8,39.2,29.7z"/>
			<g>
				<path d="M40.4,30c1.3-6.2,8.1-6.5,12.6-9.2c4.8-2.9,6.2-8.6,5.5-13.9c-0.8,0.1-1.6,0.2-2.5,0.3c1.2,3.4,2.6,7.2,2,10.8
					c-0.2,1.5-0.7,3-1.8,4.1c-1,1.1-2.3,1.6-3.7,1.9c-2.6,0.7-5.5,1-7.6,2.9c-1,0.9-1.7,2.2-2.1,3.4c-0.2,0.7-0.4,1.5-0.5,2.2
					c-0.1,0.6-0.1,1.7-0.5,2.2c0.2-0.2,0.5-0.4,0.7-0.6c-0.7,0.3-1.5-1.2-1.7-1.7c-0.4-0.9-0.7-1.9-0.6-2.9c0.1-1.6-2.4-1.6-2.5,0
					c-0.2,2.5,1.1,5.9,3.5,6.9c1.4,0.6,2.7,0.1,3.1-1.4c0.4-1.7,0.5-3.4,1.2-5c1.5-3,5.4-3,8.2-3.9c3.2-1,5.4-3.2,6.3-6.4
					c1.2-4.5-0.4-9.1-1.8-13.3c-0.4-1.2-2.6-1.1-2.5,0.3c0.3,2.7,0.3,5.5-0.9,8c-1.2,2.5-3.4,3.9-5.9,4.9c-2.5,1-5,1.7-7.1,3.3
					c-2,1.5-3.6,3.7-4.1,6.2C37.7,30.9,40.1,31.6,40.4,30z"/>
			</g>
		</g>
		<g>
			<path class="st10" d="M35.1,29.9c-1-3-0.1-6.5,1.8-9c1.8-2.6,4.4-4.8,5.4-7.8c1.4-3.9-0.1-8.4-2.9-12c2.4,2.1,4.9,4.3,6.5,6.9
				s2.3,5.8,1,8.5c-1.6,3.3-6,5.2-6.9,8.8c-0.6,2.4,0.5,4.9,1.4,7.2c0.1,0.2,0.1,0.3,0.1,0.5c-0.1,0.2-0.2,0.3-0.4,0.4
				C39.1,34.2,35.9,31.8,35.1,29.9z"/>
			<g>
				<path d="M36.3,29.5c-1.9-6,3.7-9.7,6.3-14.3c2.8-4.9,1.1-10.6-2.1-14.8c-0.7,0.5-1.3,1-2,1.5c4.3,3.8,11.2,10.2,5.8,16
					c-1.7,1.8-4,3.4-5.1,5.7c-0.7,1.4-0.8,2.9-0.5,4.4c0.1,0.9,0.4,1.7,0.7,2.6c0.2,0.6,0.8,1.6,0.8,2.3c0.1-0.3,0.2-0.6,0.4-0.9
					c-0.5,0.6-1.9-0.3-2.4-0.6c-0.8-0.6-1.5-1.3-2-2.2c-0.7-1.4-2.9-0.2-2.2,1.3c1.1,2.2,4,4.6,6.7,4.2c1.5-0.2,2.3-1.3,1.8-2.8
					c-0.6-1.9-1.6-3.8-1.4-5.9c0.4-3,3.7-4.8,5.5-6.9c2.2-2.6,2.8-5.9,1.6-9.2c-1.5-4-4.8-6.9-7.9-9.7c-1-0.9-2.9,0.3-2,1.5
					c1.7,2.2,3,4.7,3.2,7.5c0.2,2.7-1,5-2.7,7.1c-1.6,2-3.4,3.9-4.4,6.3c-1,2.4-1.3,5.1-0.5,7.6C34.4,31.7,36.8,31.1,36.3,29.5z"/>
			</g>
		</g>
	</g>
</g>
<g id="Layer_8" class="st0">
	<g class="st1">
		<path class="st11" d="M17.3,2.9C12.3,7.9,7,13.5,2,18.5c11.4,19.6,21.9,36.2,36.2,54.3c11.7-15.4,35.7-53.2,35.5-54.6
			c-0.2-1.2-10.5-10.6-15.4-16C44.6,2.3,30.9,2.3,17.3,2.9z"/>
		<g>
			<path d="M16.4,2.1C11.3,7.2,6.2,12.5,1.1,17.6c-0.4,0.4-0.5,1-0.2,1.5c8.5,14.6,17.4,29.1,27.4,42.7c2.9,4,5.9,7.9,9,11.8
				c0.6,0.7,1.5,0.3,2-0.3c10.1-13.4,19.2-27.7,28.1-41.9c1.7-2.7,3.3-5.4,4.9-8.1c0.8-1.4,1.9-3,2.4-4.5c0.2-0.7,0.1-1.3-0.4-1.9
				c-0.9-1.2-2-2.3-3.1-3.4c-3.2-3.3-6.6-6.5-9.8-9.8c-0.8-0.8-1.5-1.8-2.4-2.5C58.5,0.8,57.5,1,56.7,1c-1,0-2,0-3,0
				c-4,0-8,0-12,0.1c-8.2,0.1-16.3,0.2-24.5,0.6c-1.6,0.1-1.6,2.6,0,2.5c13.6-0.6,27.3-0.6,40.9-0.7c-0.3-0.1-0.6-0.2-0.9-0.4
				c4.6,5,9.8,9.4,14.3,14.5c0.2,0.3,0.6,0.7,0.7,0.8c0,0,0.2,0.3,0.2,0.3c-0.1,0.1-0.1-0.8-0.1-0.7c0,0.2-0.1,0.3,0,0.1
				c-0.1,0.2-0.2,0.4-0.3,0.6c-0.7,1.4-1.5,2.8-2.3,4.1C63.3,33.8,56.3,44.4,49.2,55c-3.9,5.8-7.9,11.6-12.1,17.2
				c0.7-0.1,1.3-0.2,2-0.3C28.6,58.7,19.2,44.8,10.5,30.4c-2.5-4.1-5-8.3-7.4-12.5c-0.1,0.5-0.1,1-0.2,1.5C8,14.2,13.1,9,18.2,3.8
				C19.3,2.7,17.6,0.9,16.4,2.1z"/>
		</g>
	</g>
	<g class="st1">
		<g>
			<path d="M2.9,19.8c9,0.3,18,0.7,27,0.6c9-0.1,18-0.7,26.9-0.8c5.2,0,10.5,0,15.7,0.2c1.6,0.1,1.6-2.4,0-2.5
				C63.3,17,54.1,17,44.9,17.4C36,17.8,27.1,18,18.2,17.7C13.1,17.6,8,17.4,2.9,17.3C1.3,17.2,1.3,19.7,2.9,19.8L2.9,19.8z"/>
		</g>
	</g>
	<line class="st5" x1="37.6" y1="2.4" x2="24.3" y2="18.5"/>
	<line class="st5" x1="17.3" y1="2.9" x2="24.3" y2="18.5"/>
	<line class="st5" x1="37.6" y1="2.4" x2="51.7" y2="18.3"/>
	<line class="st5" x1="58.2" y1="2.3" x2="51.7" y2="18.3"/>
	<line class="st5" x1="24.3" y1="18.5" x2="38.2" y2="72.8"/>
	<line class="st5" x1="51.7" y1="18.3" x2="38.4" y2="72.5"/>
	<g class="st1">
		<path class="st12" d="M61.9,17.4c-1.3-4.3-1.8-8.8-3.4-13.4c4.6,4.5,9.1,8.9,13.4,13.5C65.9,17.2,68,17.5,61.9,17.4z"/>
	</g>
	<g class="st1">
		<path class="st12" d="M61.9,19.4c4.6,0,5.6,0,9.9,0.2C69.1,26,44.1,63,40.4,68.3C41.6,63,60.5,26.1,61.9,19.4z"/>
	</g>
	<g class="st1">
		<path class="st13" d="M25.5,20.2c4.4-0.1,6.6-0.1,11-0.2c0.2,6,2.5,43.1,1.7,49.7C36,63.9,27.1,26.4,25.5,20.2z"/>
	</g>
	<g class="st1">
		<path class="st12" d="M36.5,17.9c-4.3,0.2-6.4,0.2-10.9,0.2c4.5-5.4,8.2-9.8,12-14.5C37,9.7,36.3,11.6,36.5,17.9z"/>
	</g>
	<g class="st1">
		<path class="st14" d="M18.5,3.8c4.4-0.2,12.6-0.2,17.1-0.4c-4.4,6.2-7.2,8.2-11,13.7C22.1,11.5,21.1,9.6,18.5,3.8z"/>
	</g>
	<g class="st1">
		<path class="st15" d="M39.7,3.5c4.8,5.9,7.6,8.3,11.8,13.4c2.4-5.6,3.4-7.8,5.9-13.6"/>
	</g>
	<g class="st1">
		<path class="st12" d="M13.5,17.7c1.2-4.4,2.1-8.6,3.6-13.2C12.6,9.1,7.8,13.3,3.5,18C9.5,17.6,7.4,17.9,13.5,17.7z"/>
	</g>
	<g class="st1">
		<path class="st12" d="M13.5,19.9c-4.6,0-5.3-0.3-9.6-0.3c2.8,6.5,27.8,44.6,32.5,49.3C35,63.6,15,26.6,13.5,19.9z"/>
	</g>
</g>
<g id="Layer_10">
	<path class="st16" d="M67.4,46.3c2.2,0.1,4.4,0,6.6-0.1c0-5,0-9.9-0.1-14.9c0-1.5-0.1-1.9-0.1-2.7c0-0.2-4-0.4-6.1-0.5
		c-0.1,2.4-0.2,3.9-0.3,6.3c-1.6-0.1-3.2-0.1-4.7-0.2c0.1-1.5-0.1-2.2,0.2-3.6c-1.9,0-3.8,0.1-5.7,0.4c-0.3,1.4-0.4,2-0.1,3.4
		c-1.2,0-2.4,0-3.6,0.1c-0.4-2.2-1.3-4.3-2.5-6.1c1-1,1.9-1.9,2.5-2.5c0.9,0.7,2.3,2,3.2,2.7c0.7-0.7,1.5-1.4,2.2-2.1
		c0.2-0.2,1.1-1.1,1.3-1.4c0,0-2-2.6-2.9-3.3c1.2-1.1,2.1-2.1,3.4-3.4c1.3,1.1,2.9,3.1,4.2,4.2c1.6-1.5,3.2-3.1,4.6-4.8
		c-3.5-3.5-7-7-10.6-10.5c-1.1-1-1.4-1.3-1.9-1.8c-0.2-0.2-3.1,2.5-4.7,4c1.6,1.7,2.7,2.9,4.3,4.7c-1.2,1.1-2.3,2.2-3.5,3.2
		c-1-1.1-1.6-1.4-2.4-2.7c-1.3,1.4-2.6,2.8-3.8,4.3c0.7,1.2,1.2,1.7,2.3,2.5c-0.8,0.8-1.7,1.7-2.5,2.6c-1.8-1.2-3.8-2.1-6.1-2.6
		c0-1.3,0-2.7,0-3.6c1.1-0.1,3-0.2,4.2-0.3c0-1,0-2.1,0-3.1c0-0.3,0-1.6-0.1-1.9c0,0-3.3-0.4-4.4-0.2c0.1-1.6,0-3,0-4.8
		c1.7-0.1,4.3,0.1,6,0c0.1-2.2,0-4.4-0.1-6.6c-5,0-9.9,0-14.9,0.1c-1.5,0-1.9,0.1-2.7,0.1c-0.2,0-0.4,4-0.5,6.1
		c2.4,0.1,3.9,0.2,6.3,0.3c-0.1,1.6-0.1,3.2-0.2,4.7c-1.5-0.1-2.2,0.1-3.6-0.2c0,1.9,0.1,3.8,0.4,5.7c1.4,0.3,2,0.4,3.4,0.1
		c0,1.2,0,2.4,0.1,3.6c-2.2,0.4-4.3,1.3-6.1,2.5c-1-1-1.9-1.9-2.5-2.5c0.7-0.9,2-2.3,2.7-3.2c-0.7-0.7-1.4-1.5-2.1-2.2
		c-0.2-0.2-1.1-1.1-1.4-1.3c0,0-2.6,2-3.3,2.9c-1.1-1.2-2.1-2.1-3.4-3.4c1.1-1.3,3.1-2.9,4.2-4.2C21,8.5,19.4,7,17.8,5.5
		c-3.5,3.5-7,7-10.5,10.6c-1,1.1-1.3,1.4-1.8,1.9c-0.2,0.2,2.5,3.1,4,4.7c1.7-1.6,2.9-2.7,4.7-4.3c1.1,1.2,2.2,2.3,3.2,3.5
		c-1.1,1-1.4,1.6-2.7,2.4c1.4,1.3,2.8,2.6,4.3,3.8c1.2-0.7,1.7-1.2,2.5-2.3c0.8,0.8,1.7,1.7,2.6,2.5c-1.2,1.8-2.1,3.8-2.6,6.1
		c-1.3,0-2.7,0-3.6,0c-0.1-1.1-0.2-3-0.3-4.2c-1,0-2.1,0-3.1,0c-0.3,0-1.6,0-1.9,0.1c0,0-0.4,3.3-0.2,4.4c-1.6-0.1-3,0-4.8,0
		c-0.1-1.7,0.1-4.3,0-6c-2.2-0.1-4.4,0-6.6,0.1c0,5,0,9.9,0.1,14.9c0,1.5,0.1,1.9,0.1,2.7c0,0.2,4,0.4,6.1,0.5
		c0.1-2.4,0.2-3.9,0.3-6.3c1.6,0.1,3.2,0.1,4.7,0.2c-0.1,1.5,0.1,2.2-0.2,3.6c1.9,0,3.8-0.2,5.7-0.4c0.3-1.4,0.4-2,0.1-3.4
		c1.2,0,2.4,0,3.6-0.1c0.4,2.2,1.3,4.3,2.5,6.1c-1,1-1.9,1.9-2.5,2.5c-0.9-0.7-2.3-2-3.2-2.7c-0.7,0.7-1.5,1.4-2.2,2.1
		c-0.2,0.2-1.1,1.1-1.3,1.4c0,0,2,2.6,2.9,3.3c-1.2,1.1-2.1,2.1-3.4,3.4c-1.3-1.1-2.9-3.1-4.2-4.2C8.5,54,7,55.6,5.5,57.2
		c3.5,3.5,7,7,10.6,10.5c1.1,1,1.4,1.3,1.9,1.8c0.2,0.2,3.1-2.5,4.7-4c-1.6-1.7-2.7-2.9-4.3-4.7c1.2-1.1,2.3-2.2,3.5-3.2
		c1,1.1,1.6,1.4,2.4,2.7c1.3-1.4,2.6-2.8,3.8-4.3c-0.7-1.2-1.2-1.7-2.3-2.5c0.8-0.8,1.7-1.7,2.5-2.6c1.8,1.2,3.8,2.1,6.1,2.6
		c0,1.3,0,2.7,0,3.6c-1.1,0.1-3,0.2-4.2,0.3c0,1,0,2.1,0,3.1c0,0.3,0,1.6,0.1,1.9c0,0,3.3,0.4,4.4,0.2c-0.1,1.6,0,3,0,4.8
		c-1.7,0.1-4.3-0.1-6,0c-0.1,2.2,0,4.4,0.1,6.6c5,0,9.9,0,14.9-0.1c1.5,0,1.9-0.1,2.7-0.1c0.2,0,0.4-4,0.5-6.1
		c-2.4-0.1-3.9-0.2-6.3-0.3c0.1-1.6,0.1-3.2,0.2-4.7c1.5,0.1,2.2-0.1,3.6,0.2c0-1.9-0.1-3.8-0.4-5.7c-1.4-0.3-2-0.4-3.4-0.1
		c0-1.2,0-2.4-0.1-3.6c2.2-0.4,4.3-1.3,6.1-2.5c1,1,1.9,1.9,2.5,2.5c-0.7,0.9-2,2.3-2.7,3.2c0.7,0.7,1.4,1.5,2.1,2.2
		c0.2,0.2,1.1,1.1,1.4,1.3c0,0,2.6-2,3.3-2.9c1.1,1.2,2.1,2.1,3.4,3.4c-1.1,1.3-3.1,2.9-4.2,4.2c1.5,1.6,3.1,3.2,4.8,4.6
		c3.5-3.5,7-7,10.5-10.6c1-1.1,1.3-1.4,1.8-1.9c0.2-0.2-2.5-3.1-4-4.7c-1.7,1.6-2.9,2.7-4.7,4.3c-1.1-1.2-2.2-2.3-3.2-3.5
		c1.1-1,1.4-1.6,2.7-2.4c-1.4-1.3-2.8-2.6-4.3-3.8c-1.2,0.7-1.7,1.2-2.5,2.3c-0.8-0.8-1.7-1.7-2.6-2.5c1.2-1.8,2.1-3.8,2.6-6.1
		c1.3,0,2.7,0,3.6,0c0.1,1.1,0.2,3,0.3,4.2c1,0,2.1,0,3.1,0c0.3,0,1.6,0,1.9-0.1c0,0,0.4-3.3,0.2-4.4c1.6,0.1,3,0,4.8,0
		C67.6,42,67.3,44.6,67.4,46.3z"/>
</g>
</svg>
