<?xml version="1.0" encoding="utf-8"?>
<!-- Generator: Adobe Illustrator 23.1.0, SVG Export Plug-In . SVG Version: 6.00 Build 0)  -->
<svg version="1.1" xmlns="http://www.w3.org/2000/svg" xmlns:xlink="http://www.w3.org/1999/xlink" x="0px" y="0px"
	 viewBox="0 0 75 75" style="enable-background:new 0 0 75 75;" xml:space="preserve">
<style type="text/css">
	.st0{display:none;}
	.st1{display:inline;}
	.st2{fill:#3953A4;}
	.st3{fill:#A9D5F2;}
	.st4{fill:#0C8140;}
</style>
<g id="Layer_1" class="st0">
	<g class="st1">
		<path class="st2" d="M38.9,1.1c-0.3,3.6-3.8,6.6-7.1,9.1c-6.4,4.9-13.1,9.7-18.6,15.3S3.2,37.4,1.8,44.3S2.4,58.7,8.4,64
			c4.9,4.3,11.5,7.8,19.1,8.6c10,1,15.4,1.4,24,0.2c6.8-1,11.2-4,13.9-6.1c1.9-1.5,7.8-7.2,7.7-15.4c0-5.3-4.7-14.6-8.9-18.8
			c-3.6-3.6-4.3-4.2-7.9-7.9C50.1,18.1,41.2,9.1,38.9,1.1z"/>
		<g>
			<path d="M37.7,1.1c-0.4,3.8-4.5,6.5-7.2,8.6c-3.6,2.8-7.3,5.5-10.8,8.3C13.2,23.3,6.9,29.3,3.1,36.8c-3.3,6.6-4.1,14.2-1,21
				c3.1,6.8,10.1,11.4,16.9,14c3.9,1.5,8,2,12.2,2.3c3.8,0.4,7.6,0.6,11.3,0.6c7.3-0.1,14.6-1.2,20.9-5.2c4.4-2.8,7.9-6.7,9.8-11.7
				c1.2-3.1,1.5-6.5,0.8-9.7c-0.7-3.3-2.1-6.5-3.8-9.5c-1.7-3-3.7-5.7-6.1-8.1c-2.4-2.4-4.8-4.7-7.2-7.2c-5.4-5.5-11.1-11.2-14.9-18
				c-0.8-1.5-1.5-3-2-4.7c-0.5-1.5-2.9-0.9-2.4,0.7c2.1,6.9,7.1,12.7,11.9,17.8c2.5,2.7,5,5.3,7.6,7.9c2.2,2.2,4.6,4.4,6.7,6.7
				c2.2,2.4,3.9,5.3,5.3,8.2c1.3,2.7,2.5,5.7,2.7,8.6c0.3,5.6-2.8,11.2-7,14.7c-1.8,1.5-4.3,3-6.6,4c-3.5,1.5-7.2,2.1-11,2.4
				c-3.4,0.3-6.8,0.3-10.3,0.1c-4-0.2-8.1-0.4-12-1.2c-3.7-0.7-7.2-2.1-10.5-4c-3.1-1.8-6.2-4.1-8.3-7.1C2,54,1.7,46.5,4.4,39.9
				c3.1-7.5,9.1-13.4,15.2-18.6c3.3-2.8,6.8-5.4,10.2-8c3-2.3,6.4-4.5,8.6-7.7c1-1.4,1.6-2.9,1.7-4.6C40.3-0.5,37.8-0.5,37.7,1.1z"
				/>
		</g>
	</g>
	<g class="st1">
		<path class="st3" d="M32,12.8c-6.9,6.9-17.7,11.9-22.2,19.8C9,34.2,8.3,35.8,8,37.4c-0.3,1.4-0.4,2.9,0.6,4.1
			c1.5,1.9,5.1,2.4,7.9,1.5s4.7-2.7,6-4.6C27.3,31.4,28,20.1,32,12.8"/>
	</g>
</g>
<g id="Layer_2">
	<g>
		<path class="st4" d="M26.5,14c-1.7-3.1-6.9-5.6-10.4-5.9c-3.5-0.3-7,0.9-10.1,2.6c-1.8,1-3.5,2.3-4.4,4.2S1.2,19.2,3,20.3
			c4.6-4,11.4-5.3,17.1-3.3c-3.7,2.3-8.4,2.5-12,4.9c-2.9,2-4.7,5.4-4.8,8.9c-0.1,3.5,1.7,7,4.5,9c0.9-4,2.1-8.2,4.8-11.3
			s7.2-5.1,11-3.7c0.5,0.2,1.1,0.5,1.4,1c0.5,0.8,0.1,2-0.6,2.6c-0.7,0.6-1.7,1-2.5,1.4c-2.9,1.5-4.9,4.4-6.5,7.3
			c-1.9,3.5-3.4,7.5-2.4,11.3c1.1,4.4,5.2,7.3,9.3,9.3c-2.2-8.3,2-17.2,7.9-23.5c1.8-1.9,4.2-3.8,6.7-3.2c-2,4.9-4.9,9.4-6.4,14.4
			c-1.5,5-1.5,10.5,0.3,15.4c1.8,4.9,5.4,9.2,10.1,11.5c0.4-1.2-0.2-2.5-0.7-3.7c-3.7-8.9-3.8-19.3-0.2-28.3
			c0.5-1.2,1.2-2.4,2.4-2.7c1,1.5,0.6,3.4,0.3,5.2c-1.5,7.6-1.7,15.4-0.7,23c0.2,1.2,0.4,2.5,0.9,3.7c1.5,3.4,5.8,5.3,9.3,4.1
			c-0.8-3.7-1.5-7.4-1.3-11.1c0.2-3.7,1.4-7.6,4.1-10.2c1.3,6-0.7,12.3-0.3,18.5c0,0.6,0.1,1.2,0.6,1.6c0.4,0.3,0.9,0.4,1.4,0.4
			c2.1,0.1,4.2,0.1,6.3,0.2c1,0,2,0,2.8-0.5c1-0.6,1.5-1.8,1.8-3c0.9-3.5,1.1-7.3,0-10.8s-3.7-6.6-7-7.9c-0.5-0.5,0-1.4,0.7-1.5
			c0.7-0.1,1.3,0.2,1.9,0.6c2.4,1.5,4.9,3.2,6.4,5.6c1.5,2.4,1.8,5.8,0,8c3.1-3.1,4.8-7.6,4.4-12s-2.7-8.6-6.2-11.2
			c-1.1-0.8-2.3-1.5-3.7-1.9C63,38.1,62,38,61,37.7c-2.4-0.6-4.7-1.8-6.9-2.9c-1-0.6-2.2-1.2-2.7-2.2c-0.6-1-0.3-2.6,0.9-3
			c4.4-0.4,9,0.2,12.9,2.4c3.8,2.2,6.8,6.3,7,10.7c1.2-3.8,1.5-8,0.4-11.9s-3.7-7.4-7.4-9.1c-2.1-1-4.4-1.3-6.7-1.4
			c-2.9-0.2-5.9-0.1-8.7,0.9c-1.4,0.5-2.8,1.1-4.2,1.1s-3.1-1.1-3-2.5c0-0.9,0.6-1.6,1.2-2.2c2.2-2.1,5.2-3.1,8.2-3.2
			c3-0.1,6,0.6,8.8,1.6c3.3,1.1,6.7,2.7,8.7,5.6c0.7-4.6-0.7-10.1-4.9-12.1c-1.7-0.8-3.7-1-5.6-1.1c-4.3-0.3-8.6-0.6-12.8,0.2
			s-8.4,2.9-10.7,6.5c-0.8-3.5,1.6-7.2,4.9-8.7c3.3-1.4,7.2-0.9,10.4,0.8c0.6,0.3,1.5,0.6,1.8,0c0.1-0.2,0.1-0.4,0.1-0.5
			c-0.1-1.8-1.4-3.3-3-4.2c-1.6-0.9-3.4-1.1-5.2-1.2C40.3,1.2,36.1,2.2,32.3,4c-1.9,1-3.7,2.2-4.9,3.9C26.2,9.7,25.7,12,26.5,14z"/>
		<g>
			<path d="M27.1,13.6c-1.5-2.6-4.3-4.2-7-5.3C16.9,7,13.4,7,10,8.1c-3.1,1-6.8,2.7-8.6,5.5c-1.5,2.3-1.3,5.7,1.1,7.3
				c0.3,0.2,0.7,0.1,0.9-0.1C8,17,14.3,15.9,19.9,17.7c-0.1-0.5-0.1-0.9-0.2-1.4c-2.8,1.7-6.1,2.2-9.1,3.4c-2.7,1.1-5,2.8-6.5,5.3
				c-3,5.2-1.5,11.8,3.3,15.4c0.4,0.3,1,0,1.1-0.4c0.9-4.3,2.2-9,5.6-12c1.6-1.5,3.7-2.5,5.8-2.8c1-0.1,2.1,0,3.1,0.3
				c0.6,0.2,1.4,0.5,1.4,1.2c0,0.8-0.8,1.3-1.3,1.6c-0.9,0.5-1.9,0.8-2.7,1.4c-0.9,0.6-1.7,1.3-2.4,2c-1.4,1.5-2.5,3.3-3.5,5.1
				c-2,3.8-3.7,8.3-2.1,12.6c1.5,4.2,5.5,6.9,9.3,8.8c0.6,0.3,1.3-0.2,1.1-0.8c-1.3-5.2-0.1-10.6,2.3-15.3c1.2-2.3,2.7-4.5,4.4-6.4
				c1.7-2,4.1-4.6,7-4c-0.2-0.3-0.3-0.6-0.5-0.9c-1.6,3.9-3.8,7.6-5.4,11.5c-1.6,4-2.4,8.3-2.1,12.6c0.7,7.6,4.9,14.6,11.8,18
				c0.4,0.2,1,0.1,1.1-0.4c0.3-1.4-0.1-2.6-0.6-3.9c-0.6-1.4-1.1-2.8-1.5-4.3c-0.8-2.9-1.3-5.9-1.4-9c-0.1-3,0.2-6.1,0.8-9.1
				c0.3-1.4,0.7-2.8,1.2-4.2c0.5-1.3,1-3.4,2.5-3.8c-0.3-0.1-0.6-0.2-0.8-0.3c1.1,1.8,0.3,4.1-0.1,6c-0.4,2.1-0.6,4.3-0.8,6.4
				c-0.4,4.3-0.3,8.7,0.1,13c0.3,3.3,0.6,6.9,3.3,9.2c2.2,1.9,5.3,2.6,8.1,1.7c0.4-0.1,0.6-0.5,0.5-0.9c-1.4-6.8-2.9-15.1,2.6-20.6
				c-0.4-0.1-0.8-0.2-1.3-0.3c1.2,5.8-0.6,11.6-0.3,17.4c0,0.9,0,2,0.6,2.8c0.8,1,2.1,0.8,3.2,0.9c1.4,0,2.7,0.1,4.1,0.1
				c1.3,0,2.6,0.2,3.8-0.3c2.2-0.8,2.7-3.5,3.1-5.5c0.5-2.5,0.6-5.1,0.1-7.6c-0.4-2.3-1.4-4.4-2.8-6.2c-0.6-0.8-1.4-1.6-2.2-2.2
				c-0.4-0.3-0.8-0.6-1.3-0.9c-0.2-0.1-1.4-0.6-1.5-0.7c-0.1-0.5,1.2,0.1,1.3,0.1c0.4,0.2,0.7,0.4,1,0.6c0.6,0.4,1.3,0.8,1.9,1.3
				c1.3,0.9,2.5,2,3.3,3.3c1.5,2.3,2,5.3,0.2,7.6c-0.5,0.7,0.6,1.5,1.2,0.9c6.5-6.7,6.1-17.8-1.2-23.8c-1.9-1.5-3.9-2.5-6.3-2.9
				c-2.6-0.5-5-1.6-7.4-2.8c-1-0.5-2.2-1-2.9-2c-0.3-0.4-0.5-1-0.3-1.5c0.3-0.8,0.9-0.7,1.6-0.8c2.7-0.1,5.3,0.1,7.9,0.9
				c5.1,1.6,9.6,5.9,9.9,11.5c0.1,0.8,1.2,1,1.5,0.2c1.4-4.8,1.7-10-0.4-14.6c-1.9-4.2-5.5-7.3-10.1-8.3c-2.6-0.6-5.4-0.7-8-0.5
				c-1.1,0.1-2.3,0.2-3.4,0.5c-1.4,0.3-2.7,1-4.1,1.3c-1.1,0.3-2.7,0.3-3.4-0.9c-0.8-1.4,1-2.8,2-3.4c2.1-1.4,4.7-2,7.2-2
				c3.2,0,6.3,0.9,9.2,2c2.7,1,5.3,2.5,7,4.8c0.3,0.5,1.3,0.5,1.4-0.2c0.5-3.4,0.1-7.1-1.9-9.9c-2.4-3.5-6.2-4-10.1-4.3
				C50.1,7,40.1,7.1,34.9,14.8c0.5,0.1,0.9,0.1,1.4,0.2c-0.9-4.6,3.4-8.3,7.7-8.5c2.4-0.1,4.5,0.7,6.7,1.6c1.4,0.6,2.8,0.2,2.7-1.5
				c-0.3-4.1-4.8-5.7-8.3-5.9c-4.6-0.3-9.2,0.8-13.3,2.9c-3.9,2-7.7,6-6,10.7c0.3,0.9,1.8,0.5,1.4-0.4c-1.5-4.2,2.3-7.5,5.7-9.2
				c3.8-1.9,8.3-2.8,12.6-2.4c1.9,0.2,4,0.7,5.3,2.2c0.3,0.4,1.6,2.3,0.7,2.4c-0.3,0-0.9-0.4-1.1-0.5c-0.4-0.2-0.9-0.4-1.3-0.5
				c-3.3-1.2-7.2-1.2-10.1,0.7c-3,1.9-4.8,5.4-4.1,8.9c0.1,0.7,1,0.7,1.4,0.2C40.8,8.8,49.7,8.5,57,9c3.7,0.2,7.8,0.2,10.1,3.5
				c1.8,2.5,2.3,5.9,1.8,8.9c0.5-0.1,0.9-0.1,1.4-0.2c-3-4.2-8.6-6.2-13.5-7.2c-4.7-0.9-10.9-0.5-14.1,3.7c-1.3,1.7-0.9,3.7,0.9,4.8
				c2.3,1.3,4.7,0,6.9-0.7c3-0.9,6.3-0.9,9.4-0.6c3,0.3,5.8,1.2,8,3.3c5,4.6,5.4,11.9,3.5,18c0.5,0.1,1,0.1,1.5,0.2
				c-0.3-4.7-3.1-8.8-7-11.2c-2.2-1.4-4.8-2.2-7.4-2.6c-1.3-0.2-2.7-0.3-4.1-0.3c-1,0-2.3-0.1-3.2,0.6c-1.4,1.2-0.9,3.4,0.3,4.6
				c0.7,0.7,1.7,1.2,2.6,1.7c1.3,0.7,2.6,1.4,3.9,1.9c2.6,1.1,5.6,1.1,8.1,2.6c2.2,1.4,4,3.4,5.2,5.7c2.9,5.6,1.8,12.5-2.6,17.1
				c0.4,0.3,0.8,0.6,1.2,0.9c2.9-3.8,0.7-8.9-2.5-11.7c-0.9-0.8-1.8-1.4-2.8-2.1c-0.9-0.6-2-1.5-3.2-1.6c-1.5-0.1-3,1.8-1.6,2.9
				c0.4,0.3,1.1,0.5,1.6,0.8c0.5,0.3,0.9,0.6,1.3,0.9c1,0.8,1.8,1.8,2.5,2.9c1.5,2.4,2.1,5.2,2,8c0,1.5-0.2,2.9-0.5,4.3
				c-0.3,1.4-0.7,3.2-2.2,3.7c-1.3,0.4-2.9,0.1-4.3,0.1c-0.6,0-1.3,0-1.9-0.1c-0.9,0-2,0.2-2.7-0.4c-1-0.9-0.6-3.7-0.5-5
				c0.1-1.6,0.3-3.3,0.4-4.9c0.3-3.2,0.5-6.4-0.2-9.6c-0.1-0.6-0.9-0.7-1.3-0.3c-5.9,5.9-4.5,14.7-3,22c0.2-0.3,0.3-0.6,0.5-0.9
				c-2.8,0.9-6.1-0.1-7.8-2.6c-1.1-1.5-1.3-3.4-1.5-5.1c-0.2-2-0.4-4-0.5-6c-0.2-4.1,0-8.2,0.6-12.3c0.4-2.9,1.9-6.7,0.3-9.5
				C42.7,37,42.3,36.9,42,37c-2.6,0.8-3.4,4.2-4,6.5c-0.9,3-1.4,6.2-1.5,9.4c-0.1,3.2,0.1,6.4,0.8,9.5c0.3,1.6,0.7,3.1,1.3,4.6
				c0.6,1.6,1.8,3.5,1.5,5.3c0.4-0.1,0.7-0.3,1.1-0.4C34.3,68.3,30.2,61.2,30,53.6c-0.1-4.2,0.9-8.1,2.5-11.9
				c1.6-3.5,3.5-6.9,5-10.5c0.1-0.4-0.2-0.9-0.5-0.9c-2.9-0.6-5.3,1.1-7.2,3.1c-2.1,2.2-4,4.7-5.5,7.3c-2.9,5.2-4.3,11.3-2.9,17.1
				c0.4-0.3,0.7-0.6,1.1-0.8c-4-2-8.4-4.9-9.1-9.7c-0.4-2.8,0.5-5.6,1.6-8.1c1-2.2,2.3-4.4,3.9-6.2c0.7-0.8,1.6-1.6,2.5-2.2
				c1-0.6,2.1-0.9,3.1-1.6c1.4-1.1,2-3.2,0.5-4.4c-1.4-1.2-3.7-1.3-5.4-1c-2,0.3-3.9,1.1-5.6,2.4c-4.2,3.2-5.9,8.5-7,13.5
				c0.4-0.1,0.7-0.3,1.1-0.4c-4.6-3.5-5.4-10.2-1.8-14.7c3.5-4.3,9.6-4.1,14.1-6.8c0.6-0.3,0.4-1.2-0.2-1.4
				c-6.1-2-12.9-0.6-17.8,3.5c0.3,0,0.6-0.1,0.9-0.1C0.8,18,2.2,14.5,4,12.9c2.2-2,5.3-3.3,8.2-3.9c2.7-0.6,5.3-0.3,7.9,0.8
				c2.2,0.9,4.6,2.4,5.8,4.5C26.3,15.2,27.6,14.4,27.1,13.6z"/>
		</g>
	</g>
	<g>
		<g>
			<path d="M25.3,14.2c1.4,3.8,4.4,6.5,7.4,9c3.7,3.1,7.1,6.4,10.3,9.9c6.6,6.9,12.7,14.5,16.7,23.3c2.2,4.9,3.8,10.1,4.4,15.5
				c0.1,1,1.6,1,1.5,0c-1-9.3-4.8-18.1-10-25.8c-5.4-8-12.1-15.3-19.3-21.7c-3.5-3.1-7.9-6-9.6-10.5C26.4,12.9,24.9,13.3,25.3,14.2
				L25.3,14.2z"/>
		</g>
	</g>
	<g>
		<g>
			<path d="M31.7,20.4c-0.9-1.5-2.9-1.2-4.4-1.4c-2.1-0.3-4.2-0.1-6.2,0.3c-4,0.9-7.9,2.9-11,5.6c-0.7,0.6,0.3,1.7,1.1,1.1
				c2.7-2.3,5.9-4.1,9.4-5c1.7-0.5,3.5-0.7,5.3-0.6c0.9,0,1.7,0.2,2.5,0.3c0.7,0,1.7-0.1,2.1,0.5C30.9,22,32.2,21.3,31.7,20.4
				L31.7,20.4z"/>
		</g>
	</g>
	<g>
		<g>
			<path d="M36.1,23.9c1.4-5.9,7.3-10,12.9-11.4c0.9-0.2,0.5-1.7-0.4-1.4c-6,1.6-12.4,6.1-13.9,12.5C34.4,24.4,35.8,24.8,36.1,23.9
				L36.1,23.9z"/>
		</g>
	</g>
	<g>
		<g>
			<path d="M37.5,25.7c-2.5,0.3-5,1.2-7.4,2.2c-1.6,0.7-3,1.7-4.3,2.9c-4.2,3.7-7.2,8.6-9,13.8c-0.3,0.9,1.1,1.3,1.4,0.4
				c1.7-4.9,4.5-9.5,8.4-13c1.2-1,2.4-2,3.9-2.6c2.1-1,4.6-1.9,6.9-2.1C38.5,27.1,38.5,25.6,37.5,25.7L37.5,25.7z"/>
		</g>
	</g>
	<g>
		<g>
			<path d="M44.6,32c0.4-2.1,2.5-4,4.3-5c1.3-0.8,2.8-1.3,4.3-1.6c4.2-0.8,8.8,0.5,12.8,1.6c0.9,0.3,1.3-1.2,0.4-1.4
				C62,24.4,57,23,52.4,24c-1.7,0.4-3.4,1.1-4.8,2c-1.9,1.3-4,3.2-4.4,5.5C43,32.6,44.4,33,44.6,32L44.6,32z"/>
		</g>
	</g>
	<g>
		<g>
			<path d="M48.9,39.1c-2.1,4.7-3.1,9.8-3.6,14.9c-0.4,4.2-0.6,8.6,0,12.8c0.1,0.9,1.6,1,1.5,0c-0.5-4-0.4-8.1,0-12.1
				c0.4-5,1.3-10.2,3.4-14.8C50.6,39,49.3,38.2,48.9,39.1L48.9,39.1z"/>
		</g>
	</g>
	<g>
		<g>
			<path d="M55.5,46.6c3.6-1.5,7.6-1.4,11.1,0.3c0.9,0.4,1.6-0.9,0.8-1.3c-3.8-1.9-8.3-2.1-12.2-0.5c-0.4,0.2-0.6,0.5-0.5,0.9
				C54.7,46.4,55.1,46.7,55.5,46.6L55.5,46.6z"/>
		</g>
	</g>
</g>
</svg>
