<?xml version="1.0" encoding="utf-8"?>
<!-- Generator: Adobe Illustrator 23.1.0, SVG Export Plug-In . SVG Version: 6.00 Build 0)  -->
<svg version="1.1" id="Layer_1" xmlns="http://www.w3.org/2000/svg" xmlns:xlink="http://www.w3.org/1999/xlink" x="0px" y="0px"
	 viewBox="0 0 75 75" style="enable-background:new 0 0 75 75;" xml:space="preserve">
<style type="text/css">
	.st0{fill:#3953A4;}
	.st1{fill:#A9D5F2;}
</style>
<g>
	<path class="st0" d="M38.9,1.1c-0.3,3.6-3.8,6.6-7.1,9.1c-6.4,4.9-13.1,9.7-18.6,15.3S3.2,37.4,1.8,44.3S2.4,58.7,8.4,64
		c4.9,4.3,11.5,7.8,19.1,8.6c10,1,15.4,1.4,24,0.2c6.8-1,11.2-4,13.9-6.1c1.9-1.5,7.8-7.2,7.7-15.4c0-5.3-4.7-14.6-8.9-18.8
		c-3.6-3.6-4.3-4.2-7.9-7.9C50.1,18.1,41.2,9.1,38.9,1.1z"/>
	<g>
		<path d="M37.7,1.1c-0.4,3.8-4.5,6.5-7.2,8.6c-3.6,2.8-7.3,5.5-10.8,8.3C13.2,23.3,6.9,29.3,3.1,36.8c-3.3,6.6-4.1,14.2-1,21
			c3.1,6.8,10.1,11.4,16.9,14c3.9,1.5,8,2,12.2,2.3c3.8,0.4,7.6,0.6,11.3,0.6c7.3-0.1,14.6-1.2,20.9-5.2c4.4-2.8,7.9-6.7,9.8-11.7
			c1.2-3.1,1.5-6.5,0.8-9.7c-0.7-3.3-2.1-6.5-3.8-9.5c-1.7-3-3.7-5.7-6.1-8.1c-2.4-2.4-4.8-4.7-7.2-7.2c-5.4-5.5-11.1-11.2-14.9-18
			c-0.8-1.5-1.5-3-2-4.7c-0.5-1.5-2.9-0.9-2.4,0.7c2.1,6.9,7.1,12.7,11.9,17.8c2.5,2.7,5,5.3,7.6,7.9c2.2,2.2,4.6,4.4,6.7,6.7
			c2.2,2.4,3.9,5.3,5.3,8.2c1.3,2.7,2.5,5.7,2.7,8.6c0.3,5.6-2.8,11.2-7,14.7c-1.8,1.5-4.3,3-6.6,4c-3.5,1.5-7.2,2.1-11,2.4
			c-3.4,0.3-6.8,0.3-10.3,0.1c-4-0.2-8.1-0.4-12-1.2c-3.7-0.7-7.2-2.1-10.5-4c-3.1-1.8-6.2-4.1-8.3-7.1C2,54,1.7,46.5,4.4,39.9
			c3.1-7.5,9.1-13.4,15.2-18.6c3.3-2.8,6.8-5.4,10.2-8c3-2.3,6.4-4.5,8.6-7.7c1-1.4,1.6-2.9,1.7-4.6C40.3-0.5,37.8-0.5,37.7,1.1z"/>
	</g>
</g>
<g>
	<path class="st1" d="M32,12.8c-6.9,6.9-17.7,11.9-22.2,19.8C9,34.2,8.3,35.8,8,37.4c-0.3,1.4-0.4,2.9,0.6,4.1
		c1.5,1.9,5.1,2.4,7.9,1.5s4.7-2.7,6-4.6C27.3,31.4,28,20.1,32,12.8"/>
</g>
</svg>
